<?xml version="1.0" encoding="utf-8"?>
<!-- Generator: Adobe Illustrator 27.9.1, SVG Export Plug-In . SVG Version: 6.00 Build 0)  -->
<svg version="1.1" xmlns="http://www.w3.org/2000/svg" xmlns:xlink="http://www.w3.org/1999/xlink" x="0px" y="0px"
	 viewBox="0 0 500 500" style="enable-background:new 0 0 500 500;" xml:space="preserve">
<style>
	.st0{fill:#302F42;}
	.st1{fill:#FEB5B5;}
	.st2{fill:#FEFEFE;}
	#Head {
	transform-origin:10% 100%;
	transform-box: fill-box;
	animation: head 5s both ease-in-out infinite;
}

@keyframes head {

	0% {  transform: rotate(0deg)}
	33% { transform: rotate(5deg)}
	100% {transform: rotate(0deg)}
}

#Arm {
	transform-origin: 80% 90%;
	transform-box: fill-box;
	animation: arm 5s both ease-in-out infinite;
}

@keyframes arm {
	0% {  transform: rotate(0deg)}
	10% { transform: rotate(-20deg)}
	20% {  transform: rotate(0deg)}
	30% { transform: rotate(-20deg)}
	40% { transform: rotate(0deg)}
	100% {transform: rotate(0deg)}
}
</style>
<g id="Body">
	<path class="st0" d="M270.4,221c4.4-2.1,6.1-0.7,6.6,4.2c0.5,4.6,2.5,8.9,5,12.9c2.1,3.3,1.4,7.5,1.9,11.3c0.5,4.1,0.7,8.3,1,12.4
		c0.1,1.1,0,2.5,0.6,3.3c3.8,5.1,2.6,10.8,2.5,16.4c0,1.7,0.1,3.5,0.7,5.1c2.9,7.4,2.4,15.2,2.8,22.8c0.2,3.6-0.2,7.1-1.8,10.4
		c-0.6,1.3-1.1,2.7-1.2,4.1c-0.5,17.7-2.9,35.4,1.2,52.9c0.1,0.3,0.2,0.6,0.2,0.8c-0.2,18.2,4.3,36.1,3,54.4
		c-0.3,4.2-1.8,8.4-0.4,12.7c0.5,1.5-0.8,2-1.9,2.3c-1.9,0.7-3.8,1.3-5.6,1.9c-4,0.2-8-0.1-11.9-1.2c-4.8-1.7-5.7-5.2-5.4-10
		c0.4-5.8-0.8-11.5-2.6-17.2c-1.3-4.1-0.8-8.8-1.6-13.1c-1.2-6.5-2.4-13.1-4.3-19.4c-1.9-6.1-2.4-12.7-4.5-18.5
		c-2.5-6.9-1.7-13.2-1.8-20.1c-0.1-7.2-3.1-14.3-4.9-21.5c-1.9-7.8-3.9-15.6-6.3-23.4c-1.9,5.5-4.6,10.8-4,16.8
		c0.6,5.4-0.2,10.6-3.5,15.1c-1.3,1.8-1.2,3.7-1.2,5.7c-0.1,9.6-0.4,19.2-0.2,28.7c0.2,9.1-2,17.8-3,26.7
		c-1.7,14.1-4.3,28.2-3.1,42.6c0.2,2.2-0.5,3.5-2.4,4.3c-2.1,0.9-4.1,1.8-6.2,2.7c-4,1-8,0.9-11.9-0.3c-2.2-1.4-3.5-2.9-2.8-6.1
		c1.1-4.7-2.3-8.9-2.6-13.7c-1-16.2-3.4-32.3-2.7-48.7c0.7-15.8-1.3-31.7-1.8-47.5c-0.6-19.3-2.8-38.5-2.3-57.9
		c0.4-15.7,4.2-30.5,9.8-44.9c1.8-4.7,4.4-7.9,10-7C232.7,223.3,251.6,224.8,270.4,221z"/>
	<path class="st0" d="M218.3,117.9c4.9,1.2,3-0.3,7.7-2c8-2,15.6-1.8,23.3,1.1c3.8,1.4,7.9,2.3,11.9,3.3c4,1.1,7.8,2.5,11,5.3
		c3,2.5,6.3,4.8,10.1,6.3c2.8,1.1,4.8,3.5,6.1,6.3c3.1,6.8,6.1,13.5,9.3,20.2c3,6.5,2.7,7.5-3.3,10.6c-2.2,0-1.8,1.9-2.1,3.1
		c-1.1,4.7-3.2,8.8-6.1,12.5c-2,2.6-3.6,5.4-4.9,8.4c-1.8,2.5-3.5,5.2-7.4,3.8c-18.6-4.3-37.2-8.6-55.8-12.9
		c-3.8-0.7-4.8-3.2-5.3-6.8c-1.1-7.9-1.9-15.9-2.2-23.8c-0.1-2.1-0.2-3.8-2.8-4.3"/>
	<path class="st1" d="M218.1,183.7c18.6,4.3,37.2,8.6,55.8,12.9c-4.4,7.7-3.4,16.1-3.4,24.3c-18.9,3.8-37.8,2.3-56.7,0.4
		C217.8,209.1,218.8,196.5,218.1,183.7z"/>
	<path class="st1" d="M281.2,192.9c1.3-3,2.9-5.8,4.9-8.4c3-3.7,5-7.8,6.1-12.5c0.3-1.2-0.1-3.1,2.1-3.1
		c6.2,19.5,12.2,39.1,18.6,58.5c2.5,7.5,4.3,15,3.8,23c-0.3,6-0.1,6.1,6,6.2c0.6,0,1.1,0.1,1.7,0.1c-1.1,5.4-6.3,10-10.5,9.2
		c-6-1-10-6.7-8.8-12.8c0.6-3.3-1.3-5.8-2.4-8.4c-6.5-16.5-13.2-33-19.9-49.5C282.6,194.3,281.8,193.6,281.2,192.9z"/>
	<path class="st0" d="M285,474.9c3.3,0.3,4.2,2.3,4.2,5.4c0.1,4.6,0.7,9.1,0.9,13.6c0.1,1.3,1.2,3.5-1.7,3.4c-2.1-0.1-4.8,1-5.1-2.7
		c0-0.5-0.2-1.1-0.7-2.4c-1.2,6.5-5.9,5-9.8,5.1c-3.4,0-6.8,0-10.3,0c-1.7,0-3.5,0.1-4.1-2.1c-0.6-2.1,0.4-3.6,2-4.8
		c3.4-2.4,6.8-4.7,10.2-7c2.2-1.5,4.2-3,3.5-6.1c-0.4-1.7,0.3-2.7,2.1-2.8C279.2,474.7,282.1,474.8,285,474.9z"/>
	<path class="st0" d="M218.1,474.9c3.3,0.3,4.1,2.5,4.3,5.4c0.2,4.5,0.7,9.1,0.8,13.6c0,1.2,1.2,3.5-1.7,3.4
		c-2.1-0.1-4.8,0.9-5.1-2.7c0-0.5-0.2-1-0.7-2.3c-1.1,6.3-5.5,5-9.4,5c-3.6,0-7.1,0-10.7,0c-1.7,0-3.4,0.2-4-2.1
		c-0.5-2,0.2-3.4,1.7-4.4c3.5-2.5,7-4.9,10.5-7.3c2.3-1.5,4-3.1,3.4-6.1c-0.4-1.7,0.4-2.7,2.2-2.8
		C212.3,474.7,215.2,474.8,218.1,474.9z"/>
	<path class="st1" d="M218.1,474.9c-2.9-0.1-5.8-0.2-8.6-0.4c-1.1-9.1-2.2-18.3-3.2-27.4c4,1.2,7.9,1.3,11.9,0.3
		C218.1,456.6,218.1,465.8,218.1,474.9z"/>
	<path class="st1" d="M285,474.9c-2.9-0.1-5.8-0.2-8.6-0.3c-1.1-8.9-2.2-17.7-3.2-26.6c3.9,1.1,7.9,1.4,11.9,1.1
		C285,457.7,285,466.3,285,474.9z"/>
</g>
<g id="Arm">
	<path class="st1" d="M203.5,106.4c-5.7,4.3-11.4,8.6-17.1,12.8c-3.1-6.3-8-11.3-12.3-16.8c-11.7-15.2-23.7-30.1-35.4-45.3
		c-1.6-2.1-3.7-2.5-5.6-3.5c-6.9-3.7-7.8-10.9-2.2-16.1c1.8-1.7,3-2,4.1,0.5c0.5,1.2,1.6,2.1,2,3.3c1.3,3.5,3.4,3.8,6.2,1.9
		c2.4-1.6,3.7-1.6,4.7,1.9c0.7,2.5,3.1,4.6,5,6.7c6.8,7.5,13.7,14.9,20.5,22.3c8,8.8,16,17.8,24,26.6
		C199.5,102.8,201.6,104.5,203.5,106.4z"/>
	<path class="st0" d="M220.1,143.3c-3.4,6.4-9.8,6.1-12.4,5.5c-1.9-0.4-3.5-1.8-4.9-3.3c-5.2-5.3-10.5-10.5-15.7-15.8
		c-4.7-4.7-4.8-5.6-0.7-10.6c5.7-4.3,11.4-8.6,17.1-12.8c5.6-2,6.4-1.7,9.2,3.4c4.3,8,16.3,17.6,10.2,29L220.1,143.3z"/>
</g>
<g id="Head">
	<path class="st2" d="M253.1,107.9c2,0.7,4.2,0.7,6.2,1.1c3.2,0.5,5.5-2.3,8.6-1.9c6.5,0.6,11.7-2.4,16.1-6.5
		c14.1-12.8,13.1-34.6-1.9-48.1c-1.1-1-2.9-1.4-3.1-3.4c4.7-1.3,9-3.3,13.4-5.3c7.6-3.5,15.5-3.7,23.5-2.3c5.1,0.9,9.9,2.5,14.8,4.3
		c9.3,3.5,18.3,7.9,28,10.3c9.6,2.3,19,2,27.8-3.1c4.3-2.5,7.9-5.8,9.9-11.1c-1.9,0.5-3.4,1-4.9,1.3c-15.1,3.4-29.1,0.9-41.9-8.1
		c-8.3-5.9-13.4-14.2-18-23c-5-9.5-11.2-12.3-21.5-9.9c-9.2,2.1-17.9,5.8-26,10.5c-5.9,3.4-10.7,8-14.1,14.1
		c-2.9,5.2-3.9,10.8-3.6,16.8c-18.2-5.4-35.3,4.8-37.9,23.1c-2,13.7,3.1,25.6,11.9,35.8C243.3,106.2,247.8,108.7,253.1,107.9z"/>
	<path class="st0" d="M253.1,107.9c-5.4,0.7-9.8-1.7-12.9-5.4c-8.8-10.2-13.8-22.2-11.9-35.8c2.6-18.3,19.7-28.6,37.9-23.1
		c-0.3-6,0.8-11.6,3.6-16.8c3.3-6,8.2-10.6,14.1-14.1c8.2-4.7,16.8-8.4,26-10.5c10.4-2.4,16.6,0.3,21.5,9.9c4.6,8.8,9.7,17.1,18,23
		c12.8,9,26.7,11.5,41.9,8.1c1.5-0.3,3-0.8,4.9-1.3c-2,5.3-5.6,8.6-9.9,11.1c-8.8,5.1-18.1,5.4-27.8,3.1c-9.7-2.4-18.7-6.7-28-10.3
		c-4.8-1.8-9.7-3.4-14.8-4.3c-8-1.3-15.9-1.2-23.5,2.3c-4.4,2-8.7,4-13.4,5.3c0.3,2,2,2.5,3.1,3.4c15,13.4,16,35.3,1.9,48.1
		c-4.5,4.1-9.6,7.1-16.1,6.5c0.1-0.7,0.8-0.7,1.3-0.9c7.3-3.2,12.2-8.7,14.7-16.4c0.7-2.1,0.9-4-2.2-4.2c-2.6-0.1-3.5-1.4-3.8-4
		c-0.4-2.5,0.1-5.3-1.8-8c-0.8,2.9-1.6,5.3-2.2,7.8c-0.5,2-1.5,2.2-3.4,1.8c-4-0.7-1.6-4.3-3-6.1c-2.9,4.8-2.9,4.8-9.1,3.5
		c-6.7-1.4-13.4-2.6-20.1-4.3c-3.1-0.8-4,0.3-4.4,3.1c-1.4,9.6,4,20.2,13,25.2C248.8,106,251,106.9,253.1,107.9z"/>
	<path class="st1" d="M253.1,107.9c-2.1-1-4.3-2-6.4-3.1c-9-5-14.3-15.6-13-25.2c0.4-2.8,1.3-3.9,4.4-3.1c6.6,1.6,13.4,2.9,20.1,4.3
		c6.2,1.3,6.2,1.3,9.1-3.5c1.4,1.8-1,5.4,3,6.1c1.9,0.4,2.9,0.2,3.4-1.8c0.6-2.5,1.4-4.9,2.2-7.8c2,2.6,1.4,5.5,1.8,8
		c0.4,2.6,1.3,3.9,3.8,4c3.1,0.1,2.9,2,2.2,4.2c-2.5,7.6-7.3,13.1-14.7,16.4c-0.5,0.2-1.1,0.2-1.3,0.9c-3-0.3-5.3,2.4-8.6,1.9
		C257.3,108.7,255.1,108.6,253.1,107.9z"/>
</g>
</svg>
