<?xml version="1.0" encoding="UTF-8" standalone="no"?>
<!DOCTYPE svg PUBLIC "-//W3C//DTD SVG 1.1//EN" "http://www.w3.org/Graphics/SVG/1.1/DTD/svg11.dtd">
<svg width="300px" height="200px" version="1.1" xmlns="http://www.w3.org/2000/svg" xmlns:xlink="http://www.w3.org/1999/xlink" xml:space="preserve" xmlns:serif="http://www.serif.com/" style="fill-rule:evenodd;clip-rule:evenodd;stroke-linejoin:round;stroke-miterlimit:2;">
<style>
	#Head {
	transform-origin:10% 90%;
	transform-box: fill-box;
	animation: head 5s both ease-in-out infinite;
}

@keyframes head {
	0% {  transform: rotate(0deg)}
	33% { transform: rotate(5deg)}
	100% {transform: rotate(0deg)}
}

#Arm {
	transform-origin: 90% 90%;
	transform-box: fill-box;
	animation: arm 5s both ease-in-out infinite;
}

@keyframes arm {
	0% {  transform: rotate(0deg)}
	10% { transform: rotate(10deg)}
	20% {  transform: rotate(0deg)}
	30% { transform: rotate(20deg)}
	40% { transform: rotate(0deg)}
	100% {transform: rotate(0deg)}
}
</style>
    <circle cx="163.04" cy="100.356" r="96.158" style="fill:rgb(254,239,80);"/>
	<path d="M184.19,190.112C184.388,190.036 184.586,189.958 184.786,189.88L184.194,190.056C184.192,190.074 184.192,190.094 184.19,190.112Z" style="fill:rgb(63,61,86);"/>
	<path d="M190.588,187.37C199.064,183.366 206.968,178.096 214.066,171.658C215.248,170.588 216.406,169.486 217.54,168.35C217.898,167.992 218.256,167.63 218.608,167.266C219.584,166.26 220.53,165.238 221.456,164.2C237.134,146.588 245.706,124.132 245.706,100.356C245.706,74.672 235.702,50.522 217.54,32.362C199.38,14.2 175.23,4.196 149.546,4.196C123.862,4.196 99.714,14.2 81.552,32.362C63.39,50.522 53.388,74.672 53.388,100.356C53.388,123.798 61.72,145.962 76.99,163.462C78.446,165.136 79.968,166.766 81.552,168.35C81.924,168.722 82.3,169.094 82.68,169.456C83.692,170.436 84.722,171.394 85.77,172.322C86.406,172.89 87.05,173.448 87.702,173.994C88.21,174.424 88.72,174.846 89.238,175.262C89.248,175.272 89.256,175.28 89.266,175.288C91.63,177.196 94.072,178.984 96.584,180.65C96.562,180.322 96.542,179.996 96.524,179.67C95.676,179.102 94.838,178.518 94.01,177.922C91.938,176.436 89.928,174.872 87.986,173.224C87.308,172.648 86.634,172.066 85.974,171.47C84.896,170.512 83.84,169.524 82.81,168.512C80.858,166.6 78.992,164.608 77.21,162.538C62.82,145.822 54.11,124.088 54.11,100.356C54.11,47.732 96.922,4.92 149.546,4.92C202.17,4.92 244.982,47.732 244.982,100.356C244.982,124.454 236.006,146.49 221.22,163.3C220.318,164.326 219.392,165.338 218.444,166.326C216.97,167.862 215.448,169.352 213.876,170.786C213.278,171.336 212.676,171.872 212.064,172.402C205.894,177.77 199.024,182.354 191.618,186.006C191.556,186.036 191.492,186.068 191.43,186.098C191.212,186.566 190.928,186.994 190.588,187.37Z" style="fill:rgb(51,51,51);stroke:rgb(51,51,51);stroke-width:1.44px;"/>
	<g id="Head">
		<path id="Haare" d="M114.766,87.114C116.356,71.214 129.894,58.962 145.874,58.962C149.38,58.962 152.862,59.552 156.174,60.708C166.334,62.74 173.106,68.746 179.222,77.112C185.266,85.572 187.34,96.254 184.904,106.362C182.336,116.286 174.754,124.898 165.048,128.202C159.65,130.04 153.858,130.264 148.16,130.458C144.46,130.582 140.694,130.696 137.128,129.704C132.542,128.284 128.508,125.472 125.588,121.66C122.696,117.862 120.396,113.648 118.764,109.162C116,102.146 114.014,94.618 114.766,87.114Z" style="fill:rgb(51,51,51);fill-rule:nonzero;"/>
		<path id="Gesicht" d="M174.71,94.63C170.318,80.178 155.018,72.012 140.566,76.406C126.114,80.798 117.948,96.098 122.342,110.55C126.734,125.002 142.034,133.168 156.486,128.774C170.938,124.382 179.104,109.082 174.71,94.63Z" style="fill:rgb(255,182,182);"/>
		<path id="Pony" d="M179.46,107.36L168.862,105.154L166.912,91.09L163.252,103.988L158.188,102.934L157.048,94.73L154.914,102.252L117.278,94.42C120.064,81.034 131.968,71.352 145.642,71.352C147.624,71.352 149.602,71.556 151.544,71.96L156.998,73.094C172.558,76.332 182.698,91.8 179.46,107.36Z" style="fill:rgb(51,51,51);fill-rule:nonzero;"/>
		<path id="Zopf" d="M156.448,62.508C153.892,52.294 158.84,41.34 166.502,34.12C174.166,26.898 184.164,22.75 194.06,19.156C201.952,16.292 211.194,13.8 218.338,18.212C224.076,21.758 226.566,28.646 229.846,34.54C242.712,57.656 270.886,67.936 295.616,58.54C291.38,70.836 276.79,76.852 263.812,76.016C250.832,75.18 238.844,69.204 226.754,64.41C214.664,59.618 201.216,55.914 188.79,59.754C183.544,61.374 178.774,64.264 173.582,66.044C168.388,67.822 162.312,68.352 157.684,65.4" style="fill:rgb(51,51,51);fill-rule:nonzero;"/>
	</g>
	<g id="Arm">
		<path d="M7.312,54.298C7.052,55.27 6.918,56.272 6.918,57.28C6.918,63.196 11.498,68.19 17.394,68.702L81.66,151.008L98.434,132.562L29.988,57.456C29.99,57.378 29.99,57.302 29.99,57.224C29.99,50.9 24.786,45.696 18.462,45.696C13.24,45.696 8.638,49.246 7.312,54.298Z" style="fill:rgb(255,182,182);fill-rule:nonzero;"/>
		<path d="M103.56,134.908C122.24,159.048 103.886,171.028 96.224,169.398C92.598,168.81 89.3,166.838 87.068,163.85L68.754,145.674C67.694,144.622 67.144,143.158 67.248,141.666C67.352,140.176 68.102,138.802 69.3,137.908L90.096,122.366C90.984,121.702 92.064,121.342 93.174,121.342C95.06,121.342 96.802,122.382 97.698,124.042L103.56,134.908Z" style="fill:rgb(51,51,51);"/>
	</g>
	<path d="M96.584,180.65C96.562,180.322 96.542,179.996 96.524,179.67C98.516,181.008 100.562,182.27 102.656,183.458C103.224,183.778 103.794,184.094 104.37,184.404C108.284,186.52 112.362,188.366 116.582,189.92C126.858,193.716 137.964,195.792 149.546,195.792C161.548,195.792 173.04,193.564 183.628,189.502C186.288,188.482 188.89,187.346 191.43,186.098C191.212,186.566 190.928,186.994 190.588,187.37C188.682,188.272 186.746,189.108 184.786,189.88L184.194,190.056C184.192,190.074 184.192,190.094 184.19,190.112C173.284,194.318 161.584,196.514 149.546,196.514C130.428,196.514 112.162,190.972 96.584,180.65Z" style="fill:rgb(47,46,65);stroke:rgb(51,51,51);stroke-width:1px;"/>
	<path d="M191.43,186.098C188.89,187.346 186.288,188.482 183.628,189.502C173.04,193.564 161.548,195.792 149.546,195.792C137.964,195.792 126.858,193.716 116.582,189.92C112.362,188.366 108.284,186.52 104.37,184.404C103.794,184.094 103.224,183.778 102.656,183.458C100.562,182.27 98.516,181.008 96.524,179.67C96.324,176.25 96.93,172.75 96.224,169.398C90.91,144.194 97.724,136.994 103.56,134.908L125.408,130.538L157.354,139.412L169.784,148.452C174.838,149.516 179.04,153.28 180.548,158.37L191.43,181.764C192.06,183.118 192.07,184.684 191.454,186.044C191.446,186.062 191.438,186.08 191.43,186.098Z" style="fill:rgb(51,51,51);"/>
</svg>
