<?xml version="1.0" encoding="UTF-8" standalone="no"?>
<!DOCTYPE svg PUBLIC "-//W3C//DTD SVG 1.1//EN" "http://www.w3.org/Graphics/SVG/1.1/DTD/svg11.dtd">
<svg width="300px" height="200px" version="1.1" xmlns="http://www.w3.org/2000/svg" xmlns:xlink="http://www.w3.org/1999/xlink" xml:space="preserve" xmlns:serif="http://www.serif.com/" style="fill-rule:evenodd;clip-rule:evenodd;stroke-linejoin:round;stroke-miterlimit:2;">
<style>
	#Head {
	transform-origin:90% 90%;
	transform-box: fill-box;
	animation: head 5s both ease-in-out infinite;
}

@keyframes head {
	0% {  transform: rotate(0deg)}
	33% { transform: rotate(-5deg)}
	100% {transform: rotate(0deg)}
}

#Arm {
	transform-origin: 10% 90%;
	transform-box: fill-box;
	animation: arm 5s both ease-in-out infinite;
}

@keyframes arm {
	0% {  transform: rotate(0deg)}
	10% { transform: rotate(-10deg)}
	20% {  transform: rotate(0deg)}
	30% { transform: rotate(-20deg)}
	40% { transform: rotate(0deg)}
	100% {transform: rotate(0deg)}
}
</style>
	<circle id="kreis-gelb" cx="139.494" cy="100.356" r="96.158" style="fill:rgb(254,239,80);"/>
	<path id="kreis-rahmen" d="M111.946,187.37C103.47,183.366 95.566,178.096 88.468,171.658C87.286,170.588 86.128,169.486 84.994,168.35C84.636,167.992 84.278,167.63 83.926,167.266C82.95,166.26 82.004,165.238 81.078,164.2C65.4,146.588 56.828,124.132 56.828,100.356C56.828,74.672 66.832,50.522 84.994,32.362C103.154,14.2 127.304,4.196 152.988,4.196C178.672,4.196 202.82,14.2 220.982,32.362C239.144,50.522 249.146,74.672 249.146,100.356C249.146,123.798 240.814,145.962 225.544,163.462C224.088,165.136 222.566,166.766 220.982,168.35C220.61,168.722 220.234,169.094 219.854,169.456C218.842,170.436 217.812,171.394 216.764,172.322C216.128,172.89 215.484,173.448 214.832,173.994C214.324,174.424 213.814,174.846 213.296,175.262C213.286,175.272 213.278,175.28 213.268,175.288C210.904,177.196 208.462,178.984 205.95,180.65C205.972,180.322 205.992,179.996 206.01,179.67C206.858,179.102 207.696,178.518 208.524,177.922C210.596,176.436 212.606,174.872 214.548,173.224C215.226,172.648 215.9,172.066 216.56,171.47C217.638,170.512 218.694,169.524 219.724,168.512C221.676,166.6 223.542,164.608 225.324,162.538C239.714,145.822 248.424,124.088 248.424,100.356C248.424,47.732 205.612,4.92 152.988,4.92C100.364,4.92 57.552,47.732 57.552,100.356C57.552,124.454 66.528,146.49 81.314,163.3C82.216,164.326 83.142,165.338 84.09,166.326C85.564,167.862 87.086,169.352 88.658,170.786C89.256,171.336 89.858,171.872 90.47,172.402C96.64,177.77 103.51,182.354 110.916,186.006C110.978,186.036 111.042,186.068 111.104,186.098C111.322,186.566 111.606,186.994 111.946,187.37Z" style="fill:rgb(51,51,51);stroke:rgb(51,51,51);stroke-width:1.44px;"/>
	<g id="Head">
		<path id="Haare" d="M187.768,87.114C186.178,71.214 172.64,58.962 156.66,58.962C153.154,58.962 149.672,59.552 146.36,60.708L148.626,60.94C138.466,62.972 129.428,68.746 123.312,77.112C117.268,85.572 115.194,96.254 117.63,106.362C120.198,116.286 127.78,124.898 137.486,128.202C142.884,130.04 148.676,130.264 154.374,130.458C158.074,130.582 161.84,130.696 165.406,129.704C169.992,128.284 174.026,125.472 176.946,121.66C179.838,117.862 182.138,113.648 183.77,109.162C186.534,102.146 188.52,94.618 187.768,87.114Z" style="fill:rgb(47,46,65);fill-rule:nonzero;"/>
		<path id="Gesicht" d="M127.824,94.63C132.216,80.178 147.516,72.012 161.968,76.406C176.42,80.798 184.586,96.098 180.192,110.55C175.8,125.002 160.5,133.168 146.048,128.774C131.596,124.382 123.43,109.082 127.824,94.63Z" style="fill:rgb(255,182,182);"/>
		<path id="Pony" d="M123.074,107.36L133.672,105.154L135.622,91.09L139.282,103.988L144.346,102.934L145.486,94.73L147.62,102.252L185.256,94.42C182.47,81.034 170.566,71.352 156.892,71.352C154.91,71.352 152.932,71.556 150.99,71.96L145.536,73.094C129.976,76.332 119.836,91.8 123.074,107.36Z" style="fill:rgb(47,46,65);fill-rule:nonzero;"/>
		<path id="Zopf" d="M146.086,62.508C148.642,52.294 143.694,41.34 136.032,34.12C128.368,26.898 118.37,22.75 108.474,19.156C100.582,16.292 91.34,13.8 84.196,18.212C78.458,21.758 75.968,28.646 72.688,34.54C59.822,57.656 31.648,67.936 6.918,58.54C11.154,70.836 25.744,76.852 38.722,76.016C51.702,75.18 63.69,69.204 75.78,64.41C87.87,59.618 101.318,55.914 113.744,59.754C118.99,61.374 123.76,64.264 128.952,66.044C134.146,67.822 140.222,68.352 144.85,65.4" style="fill:rgb(47,46,65);fill-rule:nonzero;"/>
	</g>
	<g id="Arm">
		<path d="M295.222,54.298C295.482,55.27 295.616,56.272 295.616,57.28C295.616,63.196 291.036,68.19 285.14,68.702L220.874,151.008L204.1,132.562L272.546,57.456C272.544,57.378 272.544,57.302 272.544,57.224C272.544,50.9 277.748,45.696 284.072,45.696C289.294,45.696 293.896,49.246 295.222,54.298Z" style="fill:rgb(255,182,182);fill-rule:nonzero;"/>
		<path d="M198.974,134.908C180.294,159.048 198.648,171.028 206.31,169.398C209.936,168.81 213.234,166.838 215.466,163.85L233.78,145.674C234.84,144.622 235.39,143.158 235.286,141.666C235.182,140.176 234.432,138.802 233.234,137.908L212.438,122.366C211.55,121.702 210.47,121.342 209.36,121.342C207.474,121.342 205.732,122.382 204.836,124.042L198.974,134.908Z" style="fill:rgb(47,46,65);"/>
		</g>
	<path id="oberkörper" d="M111.104,186.098C113.644,187.346 116.246,188.482 118.906,189.502C129.494,193.564 140.986,195.792 152.988,195.792C164.57,195.792 175.676,193.716 185.952,189.92C190.172,188.366 194.25,186.52 198.164,184.404C198.74,184.094 199.31,183.778 199.878,183.458C201.972,182.27 204.018,181.008 206.01,179.67C206.21,176.25 205.604,172.75 206.31,169.398C211.624,144.194 204.81,136.994 198.974,134.908L177.126,130.538L145.18,139.412L132.75,148.452C127.696,149.516 123.494,153.28 121.986,158.37L111.104,181.764C110.474,183.118 110.464,184.684 111.08,186.044C111.088,186.062 111.096,186.08 111.104,186.098Z" style="fill:rgb(47,46,65);"/>
	<path d="M205.95,180.65C205.972,180.322 205.992,179.996 206.01,179.67C204.018,181.008 201.972,182.27 199.878,183.458C199.31,183.778 198.74,184.094 198.164,184.404C194.25,186.52 190.172,188.366 185.952,189.92C175.676,193.716 164.57,195.792 152.988,195.792C140.986,195.792 129.494,193.564 118.906,189.502C116.246,188.482 113.644,187.346 111.104,186.098C111.322,186.566 111.606,186.994 111.946,187.37C113.852,188.272 115.788,189.108 117.748,189.88L118.34,190.056C118.342,190.074 118.342,190.094 118.344,190.112C129.25,194.318 140.95,196.514 152.988,196.514C172.106,196.514 190.372,190.972 205.95,180.65Z" style="fill:rgb(51,51,51);"/>
</svg>
