<?xml version="1.0" encoding="UTF-8" standalone="no"?>
<!DOCTYPE svg PUBLIC "-//W3C//DTD SVG 1.1//EN" "http://www.w3.org/Graphics/SVG/1.1/DTD/svg11.dtd">
<svg width="2000px" height="1200px" version="1.1" xmlns="http://www.w3.org/2000/svg" xmlns:xlink="http://www.w3.org/1999/xlink" xml:space="preserve" xmlns:serif="http://www.serif.com/" style="fill-rule:evenodd;clip-rule:evenodd;stroke-linejoin:round;stroke-miterlimit:2;">
    <circle id="hintergrund-gelb" cx="1510.45" cy="773.921" r="347.82" style="fill:rgb(255,240,0);"/>
    <path id="kreis" d="M1610.1,1088.67C1640.75,1074.18 1669.35,1055.12 1695.02,1031.83C1699.3,1027.96 1703.48,1023.98 1707.59,1019.87C1708.88,1018.57 1710.17,1017.26 1711.45,1015.95C1714.98,1012.31 1718.4,1008.61 1721.75,1004.86C1778.46,941.151 1809.47,859.923 1809.47,773.921C1809.47,681.018 1773.28,593.663 1707.59,527.975C1641.9,462.28 1554.54,426.094 1461.64,426.094C1368.74,426.094 1281.39,462.28 1215.69,527.975C1150,593.663 1113.82,681.018 1113.82,773.921C1113.82,858.715 1143.96,938.886 1199.19,1002.19C1204.46,1008.24 1209.96,1014.14 1215.69,1019.87C1217.04,1021.21 1218.4,1022.56 1219.77,1023.87C1223.43,1027.41 1227.16,1030.88 1230.95,1034.24C1233.25,1036.29 1235.58,1038.31 1237.94,1040.28C1239.78,1041.84 1241.62,1043.37 1243.49,1044.87C1243.53,1044.91 1243.56,1044.93 1243.6,1044.96C1252.15,1051.87 1260.98,1058.33 1270.07,1064.36C1269.99,1063.17 1269.91,1061.99 1269.85,1060.81C1266.78,1058.76 1263.75,1056.65 1260.76,1054.49C1253.26,1049.12 1245.99,1043.46 1238.97,1037.5C1236.51,1035.41 1234.08,1033.31 1231.69,1031.15C1227.79,1027.69 1223.97,1024.11 1220.24,1020.45C1213.18,1013.54 1206.43,1006.33 1199.99,998.845C1147.94,938.38 1116.43,859.764 1116.43,773.921C1116.43,583.571 1271.29,428.712 1461.64,428.712C1651.99,428.712 1806.85,583.571 1806.85,773.921C1806.85,861.088 1774.38,940.796 1720.9,1001.6C1717.63,1005.31 1714.28,1008.97 1710.86,1012.55C1705.52,1018.1 1700.02,1023.49 1694.33,1028.68C1692.17,1030.67 1689.99,1032.61 1687.78,1034.52C1665.46,1053.94 1640.61,1070.52 1613.82,1083.73C1613.6,1083.84 1613.37,1083.96 1613.14,1084.07C1612.35,1085.76 1611.33,1087.31 1610.1,1088.67Z" style="fill:rgb(51,51,51);stroke:rgb(51,51,51);stroke-width:5.21px;"/>
    <path id="sprechblase" d="M16.094,513.976C16.094,585.988 74.559,644.454 146.572,644.454L1255.37,644.454L1255.37,253.02C1255.37,181.007 1196.91,122.542 1124.89,122.542L146.572,122.542C74.559,122.542 16.094,181.007 16.094,253.02L16.094,513.976Z" style="fill:white;stroke:rgb(51,51,51);stroke-width:6px;stroke-linecap:round;stroke-miterlimit:1.5;"/>
    <g transform="matrix(5.12037,0,0,5.12037,-3745.39,75.2143)">
        <g transform="matrix(12.5,0,0,12.5,751.927,37.4497)">
            <path d="M0.675,-0L0.524,-0L0.524,-0.308L0.241,-0.308L0.241,-0L0.09,-0L0.09,-0.714L0.241,-0.714L0.241,-0.434L0.524,-0.434L0.524,-0.714L0.675,-0.714L0.675,-0Z" style="fill:rgb(51,51,51);fill-rule:nonzero;"/>
        </g>
        <g transform="matrix(12.5,0,0,12.5,761.143,37.4497)">
            <path d="M0.302,-0.557C0.375,-0.557 0.431,-0.541 0.47,-0.509C0.509,-0.477 0.529,-0.429 0.529,-0.364L0.529,-0L0.425,-0L0.396,-0.074L0.392,-0.074C0.376,-0.055 0.361,-0.039 0.344,-0.026C0.328,-0.014 0.309,-0.005 0.288,0.001C0.267,0.007 0.241,0.01 0.211,0.01C0.179,0.01 0.15,0.004 0.124,-0.009C0.099,-0.021 0.079,-0.04 0.064,-0.066C0.049,-0.091 0.042,-0.124 0.042,-0.163C0.042,-0.221 0.062,-0.264 0.103,-0.291C0.144,-0.319 0.205,-0.334 0.286,-0.337L0.381,-0.34L0.381,-0.364C0.381,-0.392 0.373,-0.413 0.358,-0.427C0.343,-0.44 0.323,-0.447 0.296,-0.447C0.27,-0.447 0.244,-0.443 0.218,-0.436C0.193,-0.428 0.167,-0.419 0.142,-0.407L0.093,-0.508C0.122,-0.523 0.154,-0.535 0.19,-0.544C0.226,-0.553 0.263,-0.557 0.302,-0.557ZM0.381,-0.253L0.323,-0.251C0.275,-0.25 0.242,-0.241 0.223,-0.225C0.204,-0.209 0.195,-0.188 0.195,-0.162C0.195,-0.139 0.201,-0.123 0.215,-0.114C0.228,-0.104 0.246,-0.099 0.267,-0.099C0.299,-0.099 0.326,-0.109 0.348,-0.127C0.37,-0.146 0.381,-0.173 0.381,-0.208L0.381,-0.253Z" style="fill:rgb(51,51,51);fill-rule:nonzero;"/>
        </g>
        <g transform="matrix(12.5,0,0,12.5,768.089,37.4497)">
            <rect x="0.078" y="-0.76" width="0.149" height="0.76" style="fill:rgb(51,51,51);fill-rule:nonzero;"/>
        </g>
        <g transform="matrix(12.5,0,0,12.5,771.245,37.4497)">
            <rect x="0.078" y="-0.76" width="0.149" height="0.76" style="fill:rgb(51,51,51);fill-rule:nonzero;"/>
        </g>
        <g transform="matrix(12.5,0,0,12.5,774.4,37.4497)">
            <path d="M0.574,-0.274C0.574,-0.228 0.568,-0.188 0.556,-0.153C0.544,-0.118 0.526,-0.088 0.503,-0.064C0.479,-0.039 0.451,-0.021 0.419,-0.009C0.386,0.004 0.349,0.01 0.308,0.01C0.27,0.01 0.234,0.004 0.202,-0.009C0.17,-0.021 0.142,-0.039 0.119,-0.064C0.095,-0.088 0.077,-0.118 0.064,-0.153C0.051,-0.188 0.045,-0.228 0.045,-0.274C0.045,-0.334 0.056,-0.386 0.077,-0.428C0.099,-0.47 0.129,-0.502 0.169,-0.523C0.209,-0.545 0.256,-0.556 0.311,-0.556C0.362,-0.556 0.407,-0.545 0.447,-0.523C0.487,-0.502 0.518,-0.47 0.54,-0.428C0.563,-0.386 0.574,-0.334 0.574,-0.274ZM0.197,-0.274C0.197,-0.238 0.201,-0.208 0.208,-0.184C0.216,-0.159 0.229,-0.141 0.245,-0.128C0.262,-0.116 0.283,-0.11 0.31,-0.11C0.336,-0.11 0.358,-0.116 0.374,-0.128C0.391,-0.141 0.403,-0.159 0.41,-0.184C0.418,-0.208 0.422,-0.238 0.422,-0.274C0.422,-0.31 0.418,-0.34 0.41,-0.364C0.403,-0.388 0.391,-0.406 0.374,-0.418C0.357,-0.43 0.336,-0.436 0.309,-0.436C0.27,-0.436 0.241,-0.423 0.223,-0.396C0.206,-0.368 0.197,-0.328 0.197,-0.274Z" style="fill:rgb(51,51,51);fill-rule:nonzero;"/>
        </g>
        <g transform="matrix(12.5,0,0,12.5,781.92,37.4497)">
            <path d="M0.217,-0.116L0.224,-0.105C0.218,-0.082 0.211,-0.056 0.201,-0.029C0.192,-0.002 0.182,0.025 0.171,0.052C0.16,0.079 0.149,0.104 0.138,0.129L0.031,0.129C0.037,0.103 0.044,0.075 0.05,0.046C0.056,0.017 0.062,-0.012 0.067,-0.04C0.073,-0.068 0.077,-0.093 0.08,-0.116L0.217,-0.116Z" style="fill:rgb(51,51,51);fill-rule:nonzero;"/>
        </g>
        <g transform="matrix(12.5,0,0,12.5,788.402,37.4497)">
            <path d="M0.227,-0.546L0.227,-0L0.078,-0L0.078,-0.546L0.227,-0.546ZM0.153,-0.76C0.175,-0.76 0.194,-0.755 0.21,-0.744C0.226,-0.734 0.234,-0.715 0.234,-0.687C0.234,-0.659 0.226,-0.64 0.21,-0.63C0.194,-0.619 0.175,-0.614 0.153,-0.614C0.13,-0.614 0.111,-0.619 0.095,-0.63C0.08,-0.64 0.072,-0.659 0.072,-0.687C0.072,-0.715 0.08,-0.734 0.095,-0.744C0.111,-0.755 0.13,-0.76 0.153,-0.76Z" style="fill:rgb(51,51,51);fill-rule:nonzero;"/>
        </g>
        <g transform="matrix(12.5,0,0,12.5,791.557,37.4497)">
            <path d="M0.3,0.01C0.246,0.01 0.2,-0 0.162,-0.02C0.124,-0.039 0.095,-0.07 0.075,-0.111C0.055,-0.153 0.045,-0.206 0.045,-0.27C0.045,-0.337 0.056,-0.391 0.079,-0.433C0.101,-0.476 0.133,-0.507 0.173,-0.526C0.213,-0.546 0.26,-0.556 0.313,-0.556C0.351,-0.556 0.383,-0.552 0.411,-0.545C0.438,-0.538 0.462,-0.529 0.483,-0.519L0.439,-0.404C0.416,-0.413 0.394,-0.421 0.374,-0.427C0.353,-0.433 0.333,-0.436 0.313,-0.436C0.287,-0.436 0.265,-0.43 0.248,-0.418C0.231,-0.406 0.218,-0.387 0.209,-0.363C0.201,-0.338 0.197,-0.308 0.197,-0.271C0.197,-0.235 0.201,-0.205 0.21,-0.181C0.22,-0.157 0.233,-0.14 0.25,-0.128C0.267,-0.117 0.288,-0.111 0.313,-0.111C0.344,-0.111 0.371,-0.115 0.396,-0.123C0.42,-0.132 0.443,-0.143 0.466,-0.158L0.466,-0.031C0.443,-0.016 0.419,-0.006 0.394,0C0.369,0.007 0.338,0.01 0.3,0.01Z" style="fill:rgb(51,51,51);fill-rule:nonzero;"/>
        </g>
        <g transform="matrix(12.5,0,0,12.5,797.545,37.4497)">
            <path d="M0.227,-0.76L0.227,-0.605C0.227,-0.578 0.226,-0.552 0.224,-0.528C0.223,-0.503 0.221,-0.486 0.22,-0.476L0.228,-0.476C0.24,-0.495 0.254,-0.51 0.27,-0.522C0.286,-0.534 0.304,-0.542 0.323,-0.548C0.343,-0.553 0.364,-0.556 0.386,-0.556C0.426,-0.556 0.46,-0.549 0.489,-0.535C0.519,-0.522 0.541,-0.5 0.558,-0.47C0.574,-0.441 0.582,-0.403 0.582,-0.356L0.582,-0L0.433,-0L0.433,-0.319C0.433,-0.358 0.426,-0.387 0.412,-0.407C0.397,-0.427 0.375,-0.437 0.345,-0.437C0.315,-0.437 0.292,-0.43 0.274,-0.416C0.257,-0.402 0.245,-0.382 0.238,-0.355C0.231,-0.328 0.227,-0.296 0.227,-0.257L0.227,-0L0.078,-0L0.078,-0.76L0.227,-0.76Z" style="fill:rgb(51,51,51);fill-rule:nonzero;"/>
        </g>
        <g transform="matrix(12.5,0,0,12.5,808.458,37.4497)">
            <path d="M0.227,-0.76L0.227,-0.583C0.227,-0.563 0.226,-0.542 0.225,-0.522C0.224,-0.502 0.223,-0.486 0.221,-0.475L0.227,-0.475C0.241,-0.498 0.261,-0.517 0.286,-0.532C0.31,-0.548 0.342,-0.556 0.382,-0.556C0.443,-0.556 0.493,-0.532 0.531,-0.484C0.569,-0.437 0.588,-0.366 0.588,-0.274C0.588,-0.212 0.579,-0.16 0.562,-0.117C0.544,-0.075 0.519,-0.044 0.488,-0.022C0.456,-0.001 0.42,0.01 0.378,0.01C0.338,0.01 0.306,0.003 0.283,-0.012C0.26,-0.026 0.241,-0.042 0.227,-0.06L0.217,-0.06L0.192,-0L0.078,-0L0.078,-0.76L0.227,-0.76ZM0.334,-0.437C0.308,-0.437 0.287,-0.432 0.272,-0.421C0.257,-0.41 0.246,-0.394 0.239,-0.373C0.232,-0.351 0.228,-0.324 0.227,-0.291L0.227,-0.275C0.227,-0.222 0.235,-0.181 0.25,-0.153C0.266,-0.125 0.295,-0.111 0.336,-0.111C0.367,-0.111 0.391,-0.125 0.409,-0.153C0.427,-0.182 0.436,-0.222 0.436,-0.276C0.436,-0.329 0.427,-0.369 0.409,-0.396C0.39,-0.424 0.366,-0.437 0.334,-0.437Z" style="fill:rgb(51,51,51);fill-rule:nonzero;"/>
        </g>
        <g transform="matrix(12.5,0,0,12.5,816.106,37.4497)">
            <path d="M0.227,-0.546L0.227,-0L0.078,-0L0.078,-0.546L0.227,-0.546ZM0.153,-0.76C0.175,-0.76 0.194,-0.755 0.21,-0.744C0.226,-0.734 0.234,-0.715 0.234,-0.687C0.234,-0.659 0.226,-0.64 0.21,-0.63C0.194,-0.619 0.175,-0.614 0.153,-0.614C0.13,-0.614 0.111,-0.619 0.095,-0.63C0.08,-0.64 0.072,-0.659 0.072,-0.687C0.072,-0.715 0.08,-0.734 0.095,-0.744C0.111,-0.755 0.13,-0.76 0.153,-0.76Z" style="fill:rgb(51,51,51);fill-rule:nonzero;"/>
        </g>
        <g transform="matrix(12.5,0,0,12.5,819.261,37.4497)">
            <path d="M0.388,-0.556C0.446,-0.556 0.493,-0.54 0.529,-0.509C0.564,-0.477 0.582,-0.426 0.582,-0.356L0.582,-0L0.433,-0L0.433,-0.319C0.433,-0.358 0.426,-0.387 0.412,-0.407C0.398,-0.427 0.375,-0.437 0.345,-0.437C0.3,-0.437 0.269,-0.422 0.252,-0.391C0.235,-0.36 0.227,-0.315 0.227,-0.257L0.227,-0L0.078,-0L0.078,-0.546L0.192,-0.546L0.212,-0.476L0.22,-0.476C0.232,-0.495 0.247,-0.51 0.264,-0.522C0.281,-0.534 0.301,-0.542 0.322,-0.548C0.343,-0.553 0.365,-0.556 0.388,-0.556Z" style="fill:rgb(51,51,51);fill-rule:nonzero;"/>
        </g>
        <g transform="matrix(12.5,0,0,12.5,830.174,37.4497)">
            <path d="M0.09,-0L0.09,-0.714L0.241,-0.714L0.241,-0.125L0.531,-0.125L0.531,-0L0.09,-0Z" style="fill:rgb(51,51,51);fill-rule:nonzero;"/>
        </g>
        <g transform="matrix(12.5,0,0,12.5,836.699,37.4497)">
            <path d="M0.303,-0.556C0.354,-0.556 0.397,-0.546 0.434,-0.527C0.47,-0.508 0.498,-0.48 0.518,-0.443C0.538,-0.406 0.548,-0.361 0.548,-0.308L0.548,-0.236L0.196,-0.236C0.197,-0.194 0.21,-0.161 0.234,-0.137C0.257,-0.113 0.29,-0.101 0.332,-0.101C0.367,-0.101 0.399,-0.105 0.428,-0.112C0.457,-0.119 0.486,-0.13 0.517,-0.144L0.517,-0.029C0.49,-0.015 0.462,-0.006 0.432,0C0.403,0.007 0.367,0.01 0.325,0.01C0.271,0.01 0.222,-0 0.18,-0.021C0.138,-0.041 0.105,-0.071 0.081,-0.113C0.057,-0.154 0.045,-0.206 0.045,-0.269C0.045,-0.333 0.056,-0.386 0.077,-0.428C0.099,-0.471 0.129,-0.503 0.168,-0.524C0.207,-0.545 0.252,-0.556 0.303,-0.556ZM0.304,-0.45C0.275,-0.45 0.251,-0.441 0.232,-0.422C0.213,-0.404 0.202,-0.375 0.199,-0.335L0.408,-0.335C0.408,-0.357 0.404,-0.377 0.396,-0.394C0.389,-0.411 0.377,-0.425 0.362,-0.435C0.347,-0.445 0.328,-0.45 0.304,-0.45Z" style="fill:rgb(51,51,51);fill-rule:nonzero;"/>
        </g>
        <g transform="matrix(12.5,0,0,12.5,843.718,37.4497)">
            <path d="M0.388,-0.556C0.446,-0.556 0.493,-0.54 0.529,-0.509C0.564,-0.477 0.582,-0.426 0.582,-0.356L0.582,-0L0.433,-0L0.433,-0.319C0.433,-0.358 0.426,-0.387 0.412,-0.407C0.398,-0.427 0.375,-0.437 0.345,-0.437C0.3,-0.437 0.269,-0.422 0.252,-0.391C0.235,-0.36 0.227,-0.315 0.227,-0.257L0.227,-0L0.078,-0L0.078,-0.546L0.192,-0.546L0.212,-0.476L0.22,-0.476C0.232,-0.495 0.247,-0.51 0.264,-0.522C0.281,-0.534 0.301,-0.542 0.322,-0.548C0.343,-0.553 0.365,-0.556 0.388,-0.556Z" style="fill:rgb(51,51,51);fill-rule:nonzero;"/>
        </g>
        <g transform="matrix(12.5,0,0,12.5,851.384,37.4497)">
            <path d="M0.302,-0.557C0.375,-0.557 0.431,-0.541 0.47,-0.509C0.509,-0.477 0.529,-0.429 0.529,-0.364L0.529,-0L0.425,-0L0.396,-0.074L0.392,-0.074C0.376,-0.055 0.361,-0.039 0.344,-0.026C0.328,-0.014 0.309,-0.005 0.288,0.001C0.267,0.007 0.241,0.01 0.211,0.01C0.179,0.01 0.15,0.004 0.124,-0.009C0.099,-0.021 0.079,-0.04 0.064,-0.066C0.049,-0.091 0.042,-0.124 0.042,-0.163C0.042,-0.221 0.062,-0.264 0.103,-0.291C0.144,-0.319 0.205,-0.334 0.286,-0.337L0.381,-0.34L0.381,-0.364C0.381,-0.392 0.373,-0.413 0.358,-0.427C0.343,-0.44 0.323,-0.447 0.296,-0.447C0.27,-0.447 0.244,-0.443 0.218,-0.436C0.193,-0.428 0.167,-0.419 0.142,-0.407L0.093,-0.508C0.122,-0.523 0.154,-0.535 0.19,-0.544C0.226,-0.553 0.263,-0.557 0.302,-0.557ZM0.381,-0.253L0.323,-0.251C0.275,-0.25 0.242,-0.241 0.223,-0.225C0.204,-0.209 0.195,-0.188 0.195,-0.162C0.195,-0.139 0.201,-0.123 0.215,-0.114C0.228,-0.104 0.246,-0.099 0.267,-0.099C0.299,-0.099 0.326,-0.109 0.348,-0.127C0.37,-0.146 0.381,-0.173 0.381,-0.208L0.381,-0.253Z" style="fill:rgb(51,51,51);fill-rule:nonzero;"/>
        </g>
        <g transform="matrix(12.5,0,0,12.5,861.577,37.4497)">
            <path d="M0.527,-0.535L0.527,-0L0.461,-0L0.449,-0.075L0.445,-0.075C0.434,-0.057 0.419,-0.041 0.402,-0.028C0.384,-0.016 0.365,-0.006 0.343,0C0.321,0.007 0.297,0.01 0.272,0.01C0.23,0.01 0.195,0.003 0.166,-0.011C0.137,-0.024 0.116,-0.046 0.101,-0.074C0.087,-0.103 0.08,-0.14 0.08,-0.185L0.08,-0.535L0.162,-0.535L0.162,-0.19C0.162,-0.146 0.172,-0.113 0.192,-0.091C0.212,-0.069 0.243,-0.058 0.284,-0.058C0.324,-0.058 0.356,-0.065 0.379,-0.08C0.403,-0.095 0.42,-0.117 0.43,-0.146C0.441,-0.175 0.446,-0.211 0.446,-0.253L0.446,-0.535L0.527,-0.535Z" style="fill:rgb(51,51,51);fill-rule:nonzero;"/>
        </g>
        <g transform="matrix(12.5,0,0,12.5,869.243,37.4497)">
            <path d="M0.339,-0.545C0.402,-0.545 0.45,-0.529 0.483,-0.498C0.515,-0.467 0.532,-0.417 0.532,-0.349L0.532,-0L0.452,-0L0.452,-0.343C0.452,-0.388 0.441,-0.421 0.421,-0.443C0.401,-0.465 0.37,-0.477 0.328,-0.477C0.268,-0.477 0.227,-0.46 0.203,-0.426C0.179,-0.393 0.167,-0.344 0.167,-0.28L0.167,-0L0.085,-0L0.085,-0.535L0.151,-0.535L0.163,-0.458L0.167,-0.458C0.179,-0.477 0.193,-0.493 0.211,-0.506C0.229,-0.518 0.248,-0.528 0.27,-0.535C0.292,-0.542 0.315,-0.545 0.339,-0.545Z" style="fill:rgb(51,51,51);fill-rule:nonzero;"/>
        </g>
        <g transform="matrix(12.5,0,0,12.5,876.909,37.4497)">
            <path d="M0.276,0.01C0.208,0.01 0.155,-0.013 0.115,-0.06C0.075,-0.106 0.056,-0.174 0.056,-0.266C0.056,-0.358 0.076,-0.427 0.116,-0.474C0.157,-0.521 0.21,-0.545 0.277,-0.545C0.306,-0.545 0.33,-0.541 0.352,-0.534C0.373,-0.526 0.391,-0.516 0.406,-0.504C0.422,-0.491 0.434,-0.477 0.445,-0.461L0.451,-0.461C0.449,-0.471 0.448,-0.485 0.447,-0.502C0.445,-0.52 0.445,-0.534 0.445,-0.545L0.445,-0.76L0.526,-0.76L0.526,-0L0.46,-0L0.448,-0.076L0.445,-0.076C0.435,-0.06 0.422,-0.046 0.406,-0.033C0.391,-0.02 0.373,-0.009 0.351,-0.002C0.33,0.006 0.305,0.01 0.276,0.01ZM0.289,-0.058C0.346,-0.058 0.386,-0.074 0.41,-0.106C0.434,-0.139 0.446,-0.187 0.446,-0.251L0.446,-0.266C0.446,-0.334 0.434,-0.386 0.412,-0.423C0.389,-0.459 0.348,-0.478 0.289,-0.478C0.239,-0.478 0.201,-0.458 0.177,-0.42C0.152,-0.382 0.14,-0.33 0.14,-0.264C0.14,-0.198 0.152,-0.147 0.177,-0.111C0.201,-0.076 0.238,-0.058 0.289,-0.058Z" style="fill:rgb(51,51,51);fill-rule:nonzero;"/>
        </g>
        <g transform="matrix(12.5,0,0,12.5,887.804,37.4497)">
            <path d="M0.579,-0.546L0.579,-0L0.465,-0L0.445,-0.07L0.437,-0.07C0.425,-0.051 0.411,-0.036 0.393,-0.024C0.375,-0.013 0.356,-0.004 0.335,0.001C0.314,0.007 0.292,0.01 0.269,0.01C0.23,0.01 0.196,0.003 0.167,-0.011C0.138,-0.025 0.115,-0.046 0.099,-0.076C0.083,-0.105 0.075,-0.143 0.075,-0.19L0.075,-0.546L0.224,-0.546L0.224,-0.227C0.224,-0.188 0.231,-0.159 0.245,-0.139C0.259,-0.119 0.281,-0.109 0.312,-0.109C0.342,-0.109 0.366,-0.116 0.383,-0.13C0.401,-0.143 0.413,-0.164 0.42,-0.191C0.427,-0.218 0.43,-0.25 0.43,-0.289L0.43,-0.546L0.579,-0.546Z" style="fill:rgb(51,51,51);fill-rule:nonzero;"/>
        </g>
        <g transform="matrix(12.5,0,0,12.5,895.47,37.4497)">
            <path d="M0.388,-0.556C0.446,-0.556 0.493,-0.54 0.529,-0.509C0.564,-0.477 0.582,-0.426 0.582,-0.356L0.582,-0L0.433,-0L0.433,-0.319C0.433,-0.358 0.426,-0.387 0.412,-0.407C0.398,-0.427 0.375,-0.437 0.345,-0.437C0.3,-0.437 0.269,-0.422 0.252,-0.391C0.235,-0.36 0.227,-0.315 0.227,-0.257L0.227,-0L0.078,-0L0.078,-0.546L0.192,-0.546L0.212,-0.476L0.22,-0.476C0.232,-0.495 0.247,-0.51 0.264,-0.522C0.281,-0.534 0.301,-0.542 0.322,-0.548C0.343,-0.553 0.365,-0.556 0.388,-0.556Z" style="fill:rgb(51,51,51);fill-rule:nonzero;"/>
        </g>
        <g transform="matrix(12.5,0,0,12.5,903.136,37.4497)">
            <path d="M0.308,-0.109C0.324,-0.109 0.34,-0.111 0.356,-0.114C0.371,-0.117 0.387,-0.121 0.402,-0.126L0.402,-0.015C0.386,-0.008 0.366,-0.002 0.343,0.003C0.319,0.007 0.293,0.01 0.265,0.01C0.233,0.01 0.203,0.004 0.177,-0.006C0.152,-0.017 0.131,-0.035 0.116,-0.061C0.102,-0.087 0.094,-0.124 0.094,-0.171L0.094,-0.434L0.023,-0.434L0.023,-0.497L0.105,-0.547L0.148,-0.662L0.243,-0.662L0.243,-0.546L0.396,-0.546L0.396,-0.434L0.243,-0.434L0.243,-0.171C0.243,-0.15 0.249,-0.135 0.261,-0.124C0.273,-0.114 0.289,-0.109 0.308,-0.109Z" style="fill:rgb(51,51,51);fill-rule:nonzero;"/>
        </g>
        <g transform="matrix(12.5,0,0,12.5,907.591,37.4497)">
            <path d="M0.303,-0.556C0.354,-0.556 0.397,-0.546 0.434,-0.527C0.47,-0.508 0.498,-0.48 0.518,-0.443C0.538,-0.406 0.548,-0.361 0.548,-0.308L0.548,-0.236L0.196,-0.236C0.197,-0.194 0.21,-0.161 0.234,-0.137C0.257,-0.113 0.29,-0.101 0.332,-0.101C0.367,-0.101 0.399,-0.105 0.428,-0.112C0.457,-0.119 0.486,-0.13 0.517,-0.144L0.517,-0.029C0.49,-0.015 0.462,-0.006 0.432,0C0.403,0.007 0.367,0.01 0.325,0.01C0.271,0.01 0.222,-0 0.18,-0.021C0.138,-0.041 0.105,-0.071 0.081,-0.113C0.057,-0.154 0.045,-0.206 0.045,-0.269C0.045,-0.333 0.056,-0.386 0.077,-0.428C0.099,-0.471 0.129,-0.503 0.168,-0.524C0.207,-0.545 0.252,-0.556 0.303,-0.556ZM0.304,-0.45C0.275,-0.45 0.251,-0.441 0.232,-0.422C0.213,-0.404 0.202,-0.375 0.199,-0.335L0.408,-0.335C0.408,-0.357 0.404,-0.377 0.396,-0.394C0.389,-0.411 0.377,-0.425 0.362,-0.435C0.347,-0.445 0.328,-0.45 0.304,-0.45Z" style="fill:rgb(51,51,51);fill-rule:nonzero;"/>
        </g>
        <g transform="matrix(12.5,0,0,12.5,914.61,37.4497)">
            <path d="M0.383,-0.556C0.39,-0.556 0.399,-0.556 0.409,-0.555C0.419,-0.554 0.427,-0.553 0.433,-0.552L0.422,-0.412C0.417,-0.414 0.41,-0.415 0.401,-0.416C0.392,-0.417 0.384,-0.417 0.378,-0.417C0.359,-0.417 0.34,-0.415 0.322,-0.41C0.304,-0.405 0.288,-0.397 0.273,-0.386C0.259,-0.375 0.248,-0.361 0.24,-0.343C0.231,-0.325 0.227,-0.304 0.227,-0.278L0.227,-0L0.078,-0L0.078,-0.546L0.191,-0.546L0.213,-0.454L0.22,-0.454C0.231,-0.473 0.244,-0.49 0.26,-0.505C0.277,-0.521 0.295,-0.533 0.316,-0.542C0.336,-0.552 0.359,-0.556 0.383,-0.556Z" style="fill:rgb(51,51,51);fill-rule:nonzero;"/>
        </g>
        <g transform="matrix(12.5,0,0,12.5,919.719,37.4497)">
            <path d="M0.459,-0.162C0.459,-0.125 0.45,-0.094 0.433,-0.068C0.415,-0.043 0.389,-0.023 0.355,-0.01C0.32,0.003 0.278,0.01 0.226,0.01C0.188,0.01 0.155,0.007 0.128,0.002C0.101,-0.002 0.074,-0.011 0.046,-0.022L0.046,-0.145C0.076,-0.132 0.107,-0.121 0.141,-0.112C0.175,-0.103 0.205,-0.099 0.231,-0.099C0.26,-0.099 0.281,-0.103 0.293,-0.112C0.306,-0.121 0.312,-0.132 0.312,-0.146C0.312,-0.155 0.309,-0.163 0.304,-0.171C0.299,-0.178 0.289,-0.186 0.272,-0.196C0.255,-0.205 0.229,-0.217 0.194,-0.232C0.16,-0.246 0.132,-0.261 0.11,-0.275C0.088,-0.29 0.071,-0.307 0.061,-0.327C0.05,-0.347 0.045,-0.373 0.045,-0.404C0.045,-0.454 0.065,-0.492 0.104,-0.518C0.143,-0.543 0.195,-0.556 0.261,-0.556C0.295,-0.556 0.327,-0.553 0.358,-0.546C0.389,-0.539 0.421,-0.528 0.453,-0.513L0.408,-0.406C0.381,-0.417 0.356,-0.427 0.332,-0.435C0.308,-0.442 0.284,-0.446 0.259,-0.446C0.237,-0.446 0.221,-0.443 0.209,-0.437C0.198,-0.431 0.193,-0.422 0.193,-0.41C0.193,-0.401 0.196,-0.394 0.201,-0.387C0.207,-0.38 0.218,-0.372 0.235,-0.364C0.251,-0.356 0.275,-0.345 0.307,-0.332C0.338,-0.319 0.365,-0.306 0.388,-0.292C0.41,-0.278 0.428,-0.261 0.44,-0.241C0.453,-0.221 0.459,-0.194 0.459,-0.162Z" style="fill:rgb(51,51,51);fill-rule:nonzero;"/>
        </g>
        <g transform="matrix(12.5,0,0,12.5,925.676,37.4497)">
            <path d="M0.308,-0.109C0.324,-0.109 0.34,-0.111 0.356,-0.114C0.371,-0.117 0.387,-0.121 0.402,-0.126L0.402,-0.015C0.386,-0.008 0.366,-0.002 0.343,0.003C0.319,0.007 0.293,0.01 0.265,0.01C0.233,0.01 0.203,0.004 0.177,-0.006C0.152,-0.017 0.131,-0.035 0.116,-0.061C0.102,-0.087 0.094,-0.124 0.094,-0.171L0.094,-0.434L0.023,-0.434L0.023,-0.497L0.105,-0.547L0.148,-0.662L0.243,-0.662L0.243,-0.546L0.396,-0.546L0.396,-0.434L0.243,-0.434L0.243,-0.171C0.243,-0.15 0.249,-0.135 0.261,-0.124C0.273,-0.114 0.289,-0.109 0.308,-0.109Z" style="fill:rgb(51,51,51);fill-rule:nonzero;"/>
        </g>
        <g transform="matrix(12.5,0,0,12.5,930.131,37.4497)">
            <path d="M0.579,-0.546L0.579,-0L0.465,-0L0.445,-0.07L0.437,-0.07C0.425,-0.051 0.411,-0.036 0.393,-0.024C0.375,-0.013 0.356,-0.004 0.335,0.001C0.314,0.007 0.292,0.01 0.269,0.01C0.23,0.01 0.196,0.003 0.167,-0.011C0.138,-0.025 0.115,-0.046 0.099,-0.076C0.083,-0.105 0.075,-0.143 0.075,-0.19L0.075,-0.546L0.224,-0.546L0.224,-0.227C0.224,-0.188 0.231,-0.159 0.245,-0.139C0.259,-0.119 0.281,-0.109 0.312,-0.109C0.342,-0.109 0.366,-0.116 0.383,-0.13C0.401,-0.143 0.413,-0.164 0.42,-0.191C0.427,-0.218 0.43,-0.25 0.43,-0.289L0.43,-0.546L0.579,-0.546ZM0.161,-0.686C0.161,-0.709 0.168,-0.726 0.181,-0.736C0.194,-0.747 0.21,-0.752 0.229,-0.752C0.248,-0.752 0.264,-0.747 0.277,-0.736C0.291,-0.726 0.298,-0.709 0.298,-0.686C0.298,-0.664 0.291,-0.648 0.277,-0.637C0.264,-0.626 0.248,-0.621 0.229,-0.621C0.21,-0.621 0.194,-0.626 0.181,-0.637C0.168,-0.648 0.161,-0.664 0.161,-0.686ZM0.358,-0.686C0.358,-0.709 0.365,-0.726 0.378,-0.736C0.391,-0.747 0.407,-0.752 0.427,-0.752C0.445,-0.752 0.462,-0.747 0.475,-0.736C0.489,-0.726 0.496,-0.709 0.496,-0.686C0.496,-0.664 0.489,-0.648 0.475,-0.637C0.462,-0.626 0.445,-0.621 0.427,-0.621C0.407,-0.621 0.391,-0.626 0.378,-0.637C0.365,-0.648 0.358,-0.664 0.358,-0.686Z" style="fill:rgb(51,51,51);fill-rule:nonzero;"/>
        </g>
        <g transform="matrix(12.5,0,0,12.5,937.797,37.4497)">
            <path d="M0.308,-0.109C0.324,-0.109 0.34,-0.111 0.356,-0.114C0.371,-0.117 0.387,-0.121 0.402,-0.126L0.402,-0.015C0.386,-0.008 0.366,-0.002 0.343,0.003C0.319,0.007 0.293,0.01 0.265,0.01C0.233,0.01 0.203,0.004 0.177,-0.006C0.152,-0.017 0.131,-0.035 0.116,-0.061C0.102,-0.087 0.094,-0.124 0.094,-0.171L0.094,-0.434L0.023,-0.434L0.023,-0.497L0.105,-0.547L0.148,-0.662L0.243,-0.662L0.243,-0.546L0.396,-0.546L0.396,-0.434L0.243,-0.434L0.243,-0.171C0.243,-0.15 0.249,-0.135 0.261,-0.124C0.273,-0.114 0.289,-0.109 0.308,-0.109Z" style="fill:rgb(51,51,51);fill-rule:nonzero;"/>
        </g>
        <g transform="matrix(12.5,0,0,12.5,942.253,37.4497)">
            <path d="M0.458,-0L0.027,-0L0.027,-0.088L0.28,-0.432L0.042,-0.432L0.042,-0.546L0.449,-0.546L0.449,-0.449L0.203,-0.114L0.458,-0.114L0.458,-0Z" style="fill:rgb(51,51,51);fill-rule:nonzero;"/>
        </g>
        <g transform="matrix(12.5,0,0,12.5,948.112,37.4497)">
            <path d="M0.303,-0.556C0.354,-0.556 0.397,-0.546 0.434,-0.527C0.47,-0.508 0.498,-0.48 0.518,-0.443C0.538,-0.406 0.548,-0.361 0.548,-0.308L0.548,-0.236L0.196,-0.236C0.197,-0.194 0.21,-0.161 0.234,-0.137C0.257,-0.113 0.29,-0.101 0.332,-0.101C0.367,-0.101 0.399,-0.105 0.428,-0.112C0.457,-0.119 0.486,-0.13 0.517,-0.144L0.517,-0.029C0.49,-0.015 0.462,-0.006 0.432,0C0.403,0.007 0.367,0.01 0.325,0.01C0.271,0.01 0.222,-0 0.18,-0.021C0.138,-0.041 0.105,-0.071 0.081,-0.113C0.057,-0.154 0.045,-0.206 0.045,-0.269C0.045,-0.333 0.056,-0.386 0.077,-0.428C0.099,-0.471 0.129,-0.503 0.168,-0.524C0.207,-0.545 0.252,-0.556 0.303,-0.556ZM0.304,-0.45C0.275,-0.45 0.251,-0.441 0.232,-0.422C0.213,-0.404 0.202,-0.375 0.199,-0.335L0.408,-0.335C0.408,-0.357 0.404,-0.377 0.396,-0.394C0.389,-0.411 0.377,-0.425 0.362,-0.435C0.347,-0.445 0.328,-0.45 0.304,-0.45Z" style="fill:rgb(51,51,51);fill-rule:nonzero;"/>
        </g>
        <g transform="matrix(12.5,0,0,12.5,751.927,56.1997)">
            <path d="M0.511,-0.198C0.511,-0.156 0.501,-0.119 0.48,-0.088C0.46,-0.057 0.43,-0.033 0.391,-0.016C0.352,0.001 0.304,0.01 0.248,0.01C0.223,0.01 0.199,0.008 0.176,0.005C0.152,0.002 0.129,-0.003 0.108,-0.01C0.086,-0.016 0.065,-0.024 0.046,-0.033L0.046,-0.174C0.08,-0.159 0.115,-0.145 0.151,-0.133C0.188,-0.121 0.224,-0.115 0.26,-0.115C0.285,-0.115 0.304,-0.118 0.32,-0.125C0.335,-0.132 0.346,-0.14 0.353,-0.152C0.359,-0.163 0.363,-0.176 0.363,-0.191C0.363,-0.209 0.357,-0.224 0.345,-0.237C0.333,-0.25 0.316,-0.261 0.295,-0.272C0.274,-0.284 0.25,-0.295 0.224,-0.308C0.208,-0.316 0.189,-0.325 0.17,-0.337C0.15,-0.348 0.132,-0.362 0.114,-0.378C0.097,-0.394 0.082,-0.414 0.071,-0.437C0.06,-0.461 0.054,-0.488 0.054,-0.521C0.054,-0.564 0.064,-0.6 0.083,-0.63C0.103,-0.661 0.131,-0.684 0.167,-0.7C0.204,-0.716 0.246,-0.724 0.296,-0.724C0.333,-0.724 0.368,-0.72 0.402,-0.711C0.436,-0.703 0.471,-0.69 0.508,-0.674L0.459,-0.556C0.426,-0.569 0.397,-0.58 0.371,-0.587C0.345,-0.594 0.318,-0.598 0.291,-0.598C0.272,-0.598 0.256,-0.595 0.243,-0.589C0.229,-0.583 0.219,-0.575 0.212,-0.564C0.206,-0.553 0.202,-0.54 0.202,-0.526C0.202,-0.509 0.207,-0.495 0.217,-0.483C0.227,-0.472 0.242,-0.46 0.262,-0.45C0.282,-0.439 0.307,-0.426 0.337,-0.412C0.373,-0.395 0.405,-0.377 0.43,-0.358C0.456,-0.339 0.476,-0.317 0.49,-0.292C0.504,-0.267 0.511,-0.236 0.511,-0.198Z" style="fill:rgb(51,51,51);fill-rule:nonzero;"/>
        </g>
        <g transform="matrix(12.5,0,0,12.5,758.781,56.1997)">
            <path d="M0.227,-0.546L0.227,-0L0.078,-0L0.078,-0.546L0.227,-0.546ZM0.153,-0.76C0.175,-0.76 0.194,-0.755 0.21,-0.744C0.226,-0.734 0.234,-0.715 0.234,-0.687C0.234,-0.659 0.226,-0.64 0.21,-0.63C0.194,-0.619 0.175,-0.614 0.153,-0.614C0.13,-0.614 0.111,-0.619 0.095,-0.63C0.08,-0.64 0.072,-0.659 0.072,-0.687C0.072,-0.715 0.08,-0.734 0.095,-0.744C0.111,-0.755 0.13,-0.76 0.153,-0.76Z" style="fill:rgb(51,51,51);fill-rule:nonzero;"/>
        </g>
        <g transform="matrix(12.5,0,0,12.5,761.937,56.1997)">
            <path d="M0.303,-0.556C0.354,-0.556 0.397,-0.546 0.434,-0.527C0.47,-0.508 0.498,-0.48 0.518,-0.443C0.538,-0.406 0.548,-0.361 0.548,-0.308L0.548,-0.236L0.196,-0.236C0.197,-0.194 0.21,-0.161 0.234,-0.137C0.257,-0.113 0.29,-0.101 0.332,-0.101C0.367,-0.101 0.399,-0.105 0.428,-0.112C0.457,-0.119 0.486,-0.13 0.517,-0.144L0.517,-0.029C0.49,-0.015 0.462,-0.006 0.432,0C0.403,0.007 0.367,0.01 0.325,0.01C0.271,0.01 0.222,-0 0.18,-0.021C0.138,-0.041 0.105,-0.071 0.081,-0.113C0.057,-0.154 0.045,-0.206 0.045,-0.269C0.045,-0.333 0.056,-0.386 0.077,-0.428C0.099,-0.471 0.129,-0.503 0.168,-0.524C0.207,-0.545 0.252,-0.556 0.303,-0.556ZM0.304,-0.45C0.275,-0.45 0.251,-0.441 0.232,-0.422C0.213,-0.404 0.202,-0.375 0.199,-0.335L0.408,-0.335C0.408,-0.357 0.404,-0.377 0.396,-0.394C0.389,-0.411 0.377,-0.425 0.362,-0.435C0.347,-0.445 0.328,-0.45 0.304,-0.45Z" style="fill:rgb(51,51,51);fill-rule:nonzero;"/>
        </g>
        <g transform="matrix(12.5,0,0,12.5,772.203,56.1997)">
            <path d="M0.667,-0.545C0.725,-0.545 0.77,-0.53 0.8,-0.499C0.83,-0.468 0.845,-0.419 0.845,-0.351L0.845,-0L0.765,-0L0.765,-0.347C0.765,-0.39 0.755,-0.422 0.737,-0.444C0.718,-0.466 0.69,-0.477 0.653,-0.477C0.602,-0.477 0.564,-0.462 0.541,-0.432C0.517,-0.402 0.505,-0.358 0.505,-0.299L0.505,-0L0.425,-0L0.425,-0.347C0.425,-0.376 0.421,-0.4 0.412,-0.419C0.404,-0.438 0.392,-0.453 0.375,-0.462C0.359,-0.472 0.338,-0.477 0.313,-0.477C0.278,-0.477 0.249,-0.469 0.228,-0.455C0.206,-0.44 0.191,-0.418 0.181,-0.389C0.171,-0.361 0.167,-0.325 0.167,-0.283L0.167,-0L0.085,-0L0.085,-0.535L0.151,-0.535L0.163,-0.459L0.167,-0.459C0.178,-0.478 0.192,-0.494 0.208,-0.506C0.224,-0.519 0.243,-0.529 0.263,-0.535C0.283,-0.542 0.304,-0.545 0.327,-0.545C0.368,-0.545 0.402,-0.537 0.429,-0.522C0.457,-0.507 0.477,-0.484 0.489,-0.453L0.494,-0.453C0.511,-0.484 0.535,-0.507 0.566,-0.522C0.597,-0.537 0.63,-0.545 0.667,-0.545Z" style="fill:rgb(51,51,51);fill-rule:nonzero;"/>
        </g>
        <g transform="matrix(12.5,0,0,12.5,783.775,56.1997)">
            <path d="M0.167,-0.535L0.167,-0L0.085,-0L0.085,-0.535L0.167,-0.535ZM0.127,-0.735C0.14,-0.735 0.152,-0.731 0.161,-0.722C0.171,-0.714 0.176,-0.7 0.176,-0.682C0.176,-0.664 0.171,-0.651 0.161,-0.642C0.152,-0.633 0.14,-0.629 0.127,-0.629C0.113,-0.629 0.101,-0.633 0.092,-0.642C0.083,-0.651 0.078,-0.664 0.078,-0.682C0.078,-0.7 0.083,-0.714 0.092,-0.722C0.101,-0.731 0.113,-0.735 0.127,-0.735Z" style="fill:rgb(51,51,51);fill-rule:nonzero;"/>
        </g>
        <g transform="matrix(12.5,0,0,12.5,786.931,56.1997)">
            <path d="M0.258,-0.057C0.272,-0.057 0.285,-0.058 0.299,-0.06C0.313,-0.062 0.325,-0.065 0.333,-0.068L0.333,-0.005C0.324,-0.001 0.311,0.002 0.294,0.005C0.277,0.008 0.261,0.01 0.245,0.01C0.217,0.01 0.191,0.005 0.168,-0.005C0.145,-0.015 0.126,-0.032 0.113,-0.056C0.099,-0.079 0.092,-0.112 0.092,-0.154L0.092,-0.472L0.016,-0.472L0.016,-0.511L0.092,-0.543L0.125,-0.659L0.173,-0.659L0.173,-0.535L0.33,-0.535L0.33,-0.472L0.173,-0.472L0.173,-0.157C0.173,-0.123 0.181,-0.098 0.197,-0.082C0.212,-0.065 0.233,-0.057 0.258,-0.057Z" style="fill:rgb(51,51,51);fill-rule:nonzero;"/>
        </g>
        <g transform="matrix(12.5,0,0,12.5,794.633,56.1997)">
            <path d="M0.098,-0L0.098,-0.714L0.181,-0.714L0.181,-0.074L0.498,-0.074L0.498,-0L0.098,-0Z" style="fill:rgb(51,51,51);fill-rule:nonzero;"/>
        </g>
        <g transform="matrix(12.5,0,0,12.5,801.158,56.1997)">
            <path d="M0.292,-0.545C0.337,-0.545 0.376,-0.535 0.409,-0.515C0.441,-0.494 0.466,-0.466 0.483,-0.43C0.501,-0.394 0.509,-0.351 0.509,-0.303L0.509,-0.252L0.14,-0.252C0.141,-0.19 0.156,-0.142 0.187,-0.109C0.217,-0.076 0.259,-0.06 0.314,-0.06C0.348,-0.06 0.378,-0.063 0.404,-0.069C0.43,-0.075 0.457,-0.084 0.485,-0.096L0.485,-0.025C0.458,-0.013 0.432,-0.004 0.405,0.001C0.378,0.007 0.347,0.01 0.311,0.01C0.26,0.01 0.215,-0.001 0.177,-0.022C0.138,-0.043 0.109,-0.074 0.087,-0.114C0.066,-0.155 0.056,-0.205 0.056,-0.264C0.056,-0.321 0.065,-0.371 0.085,-0.413C0.104,-0.455 0.131,-0.488 0.167,-0.511C0.202,-0.534 0.244,-0.545 0.292,-0.545ZM0.291,-0.479C0.247,-0.479 0.213,-0.464 0.187,-0.436C0.161,-0.408 0.146,-0.368 0.141,-0.317L0.424,-0.317C0.424,-0.349 0.419,-0.377 0.409,-0.402C0.4,-0.426 0.385,-0.445 0.366,-0.458C0.346,-0.472 0.321,-0.479 0.291,-0.479Z" style="fill:rgb(51,51,51);fill-rule:nonzero;"/>
        </g>
        <g transform="matrix(12.5,0,0,12.5,808.177,56.1997)">
            <path d="M0.329,-0.545C0.339,-0.545 0.351,-0.544 0.362,-0.543C0.374,-0.542 0.384,-0.541 0.394,-0.539L0.383,-0.463C0.375,-0.466 0.365,-0.467 0.354,-0.469C0.343,-0.47 0.333,-0.471 0.324,-0.471C0.302,-0.471 0.282,-0.466 0.263,-0.458C0.244,-0.449 0.227,-0.437 0.213,-0.421C0.199,-0.405 0.187,-0.385 0.179,-0.363C0.171,-0.34 0.167,-0.315 0.167,-0.287L0.167,-0L0.085,-0L0.085,-0.535L0.153,-0.535L0.162,-0.437L0.165,-0.437C0.176,-0.456 0.189,-0.475 0.205,-0.491C0.221,-0.507 0.239,-0.521 0.26,-0.53C0.28,-0.54 0.303,-0.545 0.329,-0.545Z" style="fill:rgb(51,51,51);fill-rule:nonzero;"/>
        </g>
        <g transform="matrix(12.5,0,0,12.5,813.286,56.1997)">
            <path d="M0.339,-0.545C0.402,-0.545 0.45,-0.529 0.483,-0.498C0.515,-0.467 0.532,-0.417 0.532,-0.349L0.532,-0L0.452,-0L0.452,-0.343C0.452,-0.388 0.441,-0.421 0.421,-0.443C0.401,-0.465 0.37,-0.477 0.328,-0.477C0.268,-0.477 0.227,-0.46 0.203,-0.426C0.179,-0.393 0.167,-0.344 0.167,-0.28L0.167,-0L0.085,-0L0.085,-0.535L0.151,-0.535L0.163,-0.458L0.167,-0.458C0.179,-0.477 0.193,-0.493 0.211,-0.506C0.229,-0.518 0.248,-0.528 0.27,-0.535C0.292,-0.542 0.315,-0.545 0.339,-0.545Z" style="fill:rgb(51,51,51);fill-rule:nonzero;"/>
        </g>
        <g transform="matrix(12.5,0,0,12.5,820.952,56.1997)">
            <path d="M0.292,-0.545C0.337,-0.545 0.376,-0.535 0.409,-0.515C0.441,-0.494 0.466,-0.466 0.483,-0.43C0.501,-0.394 0.509,-0.351 0.509,-0.303L0.509,-0.252L0.14,-0.252C0.141,-0.19 0.156,-0.142 0.187,-0.109C0.217,-0.076 0.259,-0.06 0.314,-0.06C0.348,-0.06 0.378,-0.063 0.404,-0.069C0.43,-0.075 0.457,-0.084 0.485,-0.096L0.485,-0.025C0.458,-0.013 0.432,-0.004 0.405,0.001C0.378,0.007 0.347,0.01 0.311,0.01C0.26,0.01 0.215,-0.001 0.177,-0.022C0.138,-0.043 0.109,-0.074 0.087,-0.114C0.066,-0.155 0.056,-0.205 0.056,-0.264C0.056,-0.321 0.065,-0.371 0.085,-0.413C0.104,-0.455 0.131,-0.488 0.167,-0.511C0.202,-0.534 0.244,-0.545 0.292,-0.545ZM0.291,-0.479C0.247,-0.479 0.213,-0.464 0.187,-0.436C0.161,-0.408 0.146,-0.368 0.141,-0.317L0.424,-0.317C0.424,-0.349 0.419,-0.377 0.409,-0.402C0.4,-0.426 0.385,-0.445 0.366,-0.458C0.346,-0.472 0.321,-0.479 0.291,-0.479Z" style="fill:rgb(51,51,51);fill-rule:nonzero;"/>
        </g>
        <g transform="matrix(12.5,0,0,12.5,827.971,56.1997)">
            <path d="M0.667,-0.545C0.725,-0.545 0.77,-0.53 0.8,-0.499C0.83,-0.468 0.845,-0.419 0.845,-0.351L0.845,-0L0.765,-0L0.765,-0.347C0.765,-0.39 0.755,-0.422 0.737,-0.444C0.718,-0.466 0.69,-0.477 0.653,-0.477C0.602,-0.477 0.564,-0.462 0.541,-0.432C0.517,-0.402 0.505,-0.358 0.505,-0.299L0.505,-0L0.425,-0L0.425,-0.347C0.425,-0.376 0.421,-0.4 0.412,-0.419C0.404,-0.438 0.392,-0.453 0.375,-0.462C0.359,-0.472 0.338,-0.477 0.313,-0.477C0.278,-0.477 0.249,-0.469 0.228,-0.455C0.206,-0.44 0.191,-0.418 0.181,-0.389C0.171,-0.361 0.167,-0.325 0.167,-0.283L0.167,-0L0.085,-0L0.085,-0.535L0.151,-0.535L0.163,-0.459L0.167,-0.459C0.178,-0.478 0.192,-0.494 0.208,-0.506C0.224,-0.519 0.243,-0.529 0.263,-0.535C0.283,-0.542 0.304,-0.545 0.327,-0.545C0.368,-0.545 0.402,-0.537 0.429,-0.522C0.457,-0.507 0.477,-0.484 0.489,-0.453L0.494,-0.453C0.511,-0.484 0.535,-0.507 0.566,-0.522C0.597,-0.537 0.63,-0.545 0.667,-0.545Z" style="fill:rgb(51,51,51);fill-rule:nonzero;"/>
        </g>
        <g transform="matrix(12.5,0,0,12.5,839.543,56.1997)">
            <path d="M0.337,-0.545C0.404,-0.545 0.457,-0.522 0.497,-0.476C0.536,-0.43 0.556,-0.361 0.556,-0.269C0.556,-0.208 0.547,-0.157 0.529,-0.116C0.511,-0.074 0.485,-0.043 0.452,-0.022C0.419,-0.001 0.38,0.01 0.335,0.01C0.307,0.01 0.282,0.006 0.26,-0.001C0.239,-0.009 0.22,-0.019 0.205,-0.032C0.19,-0.044 0.177,-0.058 0.167,-0.073L0.161,-0.073C0.162,-0.061 0.163,-0.045 0.165,-0.027C0.166,-0.009 0.167,0.006 0.167,0.02L0.167,0.239L0.085,0.239L0.085,-0.535L0.152,-0.535L0.163,-0.456L0.167,-0.456C0.177,-0.472 0.19,-0.487 0.205,-0.501C0.22,-0.514 0.238,-0.525 0.26,-0.533C0.282,-0.541 0.307,-0.545 0.337,-0.545ZM0.323,-0.477C0.286,-0.477 0.256,-0.469 0.233,-0.455C0.211,-0.441 0.194,-0.419 0.184,-0.391C0.173,-0.362 0.168,-0.327 0.167,-0.284L0.167,-0.268C0.167,-0.223 0.172,-0.185 0.182,-0.153C0.192,-0.122 0.208,-0.098 0.231,-0.082C0.254,-0.066 0.285,-0.058 0.324,-0.058C0.357,-0.058 0.385,-0.067 0.407,-0.084C0.429,-0.102 0.445,-0.127 0.456,-0.159C0.467,-0.191 0.473,-0.228 0.473,-0.27C0.473,-0.333 0.46,-0.383 0.436,-0.421C0.411,-0.458 0.374,-0.477 0.323,-0.477Z" style="fill:rgb(51,51,51);fill-rule:nonzero;"/>
        </g>
        <g transform="matrix(12.5,0,0,12.5,847.191,56.1997)">
            <path d="M0.324,-0.472L0.19,-0.472L0.19,-0L0.109,-0L0.109,-0.472L0.015,-0.472L0.015,-0.511L0.109,-0.538L0.109,-0.573C0.109,-0.618 0.116,-0.655 0.129,-0.683C0.143,-0.711 0.162,-0.732 0.188,-0.745C0.213,-0.758 0.244,-0.765 0.28,-0.765C0.301,-0.765 0.32,-0.763 0.337,-0.76C0.354,-0.756 0.369,-0.752 0.382,-0.748L0.361,-0.684C0.35,-0.687 0.337,-0.691 0.323,-0.694C0.31,-0.697 0.296,-0.698 0.281,-0.698C0.25,-0.698 0.227,-0.688 0.213,-0.668C0.198,-0.648 0.19,-0.617 0.19,-0.574L0.19,-0.535L0.324,-0.535L0.324,-0.472Z" style="fill:rgb(51,51,51);fill-rule:nonzero;"/>
        </g>
        <g transform="matrix(12.5,0,0,12.5,851.396,56.1997)">
            <path d="M0.292,-0.545C0.337,-0.545 0.376,-0.535 0.409,-0.515C0.441,-0.494 0.466,-0.466 0.483,-0.43C0.501,-0.394 0.509,-0.351 0.509,-0.303L0.509,-0.252L0.14,-0.252C0.141,-0.19 0.156,-0.142 0.187,-0.109C0.217,-0.076 0.259,-0.06 0.314,-0.06C0.348,-0.06 0.378,-0.063 0.404,-0.069C0.43,-0.075 0.457,-0.084 0.485,-0.096L0.485,-0.025C0.458,-0.013 0.432,-0.004 0.405,0.001C0.378,0.007 0.347,0.01 0.311,0.01C0.26,0.01 0.215,-0.001 0.177,-0.022C0.138,-0.043 0.109,-0.074 0.087,-0.114C0.066,-0.155 0.056,-0.205 0.056,-0.264C0.056,-0.321 0.065,-0.371 0.085,-0.413C0.104,-0.455 0.131,-0.488 0.167,-0.511C0.202,-0.534 0.244,-0.545 0.292,-0.545ZM0.291,-0.479C0.247,-0.479 0.213,-0.464 0.187,-0.436C0.161,-0.408 0.146,-0.368 0.141,-0.317L0.424,-0.317C0.424,-0.349 0.419,-0.377 0.409,-0.402C0.4,-0.426 0.385,-0.445 0.366,-0.458C0.346,-0.472 0.321,-0.479 0.291,-0.479Z" style="fill:rgb(51,51,51);fill-rule:nonzero;"/>
        </g>
        <g transform="matrix(12.5,0,0,12.5,858.415,56.1997)">
            <path d="M0.167,-0.76L0.167,-0.533C0.167,-0.52 0.166,-0.507 0.166,-0.493C0.165,-0.48 0.164,-0.468 0.162,-0.457L0.167,-0.457C0.179,-0.476 0.193,-0.492 0.21,-0.505C0.227,-0.517 0.246,-0.527 0.268,-0.534C0.29,-0.541 0.313,-0.544 0.337,-0.544C0.38,-0.544 0.416,-0.537 0.445,-0.523C0.474,-0.51 0.496,-0.489 0.51,-0.46C0.524,-0.431 0.532,-0.394 0.532,-0.349L0.532,-0L0.452,-0L0.452,-0.343C0.452,-0.388 0.441,-0.421 0.421,-0.443C0.401,-0.465 0.37,-0.477 0.328,-0.477C0.288,-0.477 0.256,-0.469 0.233,-0.454C0.209,-0.439 0.192,-0.417 0.182,-0.387C0.172,-0.358 0.167,-0.322 0.167,-0.28L0.167,-0L0.085,-0L0.085,-0.76L0.167,-0.76Z" style="fill:rgb(51,51,51);fill-rule:nonzero;"/>
        </g>
        <g transform="matrix(12.5,0,0,12.5,866.081,56.1997)">
            <rect x="0.085" y="-0.76" width="0.082" height="0.76" style="fill:rgb(51,51,51);fill-rule:nonzero;"/>
        </g>
        <g transform="matrix(12.5,0,0,12.5,869.237,56.1997)">
            <path d="M0.527,-0.535L0.527,-0L0.461,-0L0.449,-0.075L0.445,-0.075C0.434,-0.057 0.419,-0.041 0.402,-0.028C0.384,-0.016 0.365,-0.006 0.343,0C0.321,0.007 0.297,0.01 0.272,0.01C0.23,0.01 0.195,0.003 0.166,-0.011C0.137,-0.024 0.116,-0.046 0.101,-0.074C0.087,-0.103 0.08,-0.14 0.08,-0.185L0.08,-0.535L0.162,-0.535L0.162,-0.19C0.162,-0.146 0.172,-0.113 0.192,-0.091C0.212,-0.069 0.243,-0.058 0.284,-0.058C0.324,-0.058 0.356,-0.065 0.379,-0.08C0.403,-0.095 0.42,-0.117 0.43,-0.146C0.441,-0.175 0.446,-0.211 0.446,-0.253L0.446,-0.535L0.527,-0.535Z" style="fill:rgb(51,51,51);fill-rule:nonzero;"/>
        </g>
        <g transform="matrix(12.5,0,0,12.5,876.903,56.1997)">
            <path d="M0.339,-0.545C0.402,-0.545 0.45,-0.529 0.483,-0.498C0.515,-0.467 0.532,-0.417 0.532,-0.349L0.532,-0L0.452,-0L0.452,-0.343C0.452,-0.388 0.441,-0.421 0.421,-0.443C0.401,-0.465 0.37,-0.477 0.328,-0.477C0.268,-0.477 0.227,-0.46 0.203,-0.426C0.179,-0.393 0.167,-0.344 0.167,-0.28L0.167,-0L0.085,-0L0.085,-0.535L0.151,-0.535L0.163,-0.458L0.167,-0.458C0.179,-0.477 0.193,-0.493 0.211,-0.506C0.229,-0.518 0.248,-0.528 0.27,-0.535C0.292,-0.542 0.315,-0.545 0.339,-0.545Z" style="fill:rgb(51,51,51);fill-rule:nonzero;"/>
        </g>
        <g transform="matrix(12.5,0,0,12.5,884.569,56.1997)">
            <path d="M0.235,0.24C0.165,0.24 0.11,0.227 0.072,0.201C0.034,0.175 0.015,0.138 0.015,0.091C0.015,0.057 0.026,0.029 0.047,0.005C0.068,-0.019 0.098,-0.035 0.136,-0.042C0.122,-0.049 0.11,-0.059 0.1,-0.072C0.09,-0.085 0.085,-0.1 0.085,-0.117C0.085,-0.136 0.09,-0.153 0.101,-0.168C0.112,-0.183 0.129,-0.197 0.151,-0.211C0.123,-0.222 0.101,-0.242 0.083,-0.269C0.066,-0.296 0.057,-0.328 0.057,-0.364C0.057,-0.402 0.065,-0.435 0.081,-0.462C0.097,-0.489 0.12,-0.51 0.15,-0.524C0.181,-0.539 0.217,-0.546 0.26,-0.546C0.27,-0.546 0.279,-0.545 0.289,-0.545C0.298,-0.544 0.308,-0.543 0.316,-0.541C0.325,-0.54 0.333,-0.538 0.339,-0.536L0.523,-0.536L0.523,-0.484L0.424,-0.472C0.434,-0.459 0.442,-0.444 0.449,-0.426C0.455,-0.408 0.458,-0.388 0.458,-0.366C0.458,-0.313 0.44,-0.27 0.404,-0.239C0.368,-0.208 0.319,-0.192 0.255,-0.192C0.24,-0.192 0.225,-0.193 0.209,-0.196C0.194,-0.187 0.181,-0.177 0.173,-0.167C0.165,-0.156 0.161,-0.143 0.161,-0.129C0.161,-0.119 0.164,-0.111 0.17,-0.104C0.177,-0.098 0.186,-0.094 0.198,-0.091C0.21,-0.088 0.224,-0.087 0.241,-0.087L0.335,-0.087C0.394,-0.087 0.438,-0.075 0.469,-0.05C0.501,-0.026 0.516,0.01 0.516,0.057C0.516,0.116 0.492,0.161 0.444,0.193C0.396,0.224 0.326,0.24 0.235,0.24ZM0.237,0.177C0.282,0.177 0.318,0.172 0.347,0.163C0.377,0.154 0.398,0.142 0.413,0.125C0.427,0.108 0.435,0.088 0.435,0.065C0.435,0.043 0.43,0.027 0.42,0.016C0.41,0.005 0.396,-0.002 0.377,-0.006C0.358,-0.009 0.335,-0.011 0.308,-0.011L0.215,-0.011C0.191,-0.011 0.17,-0.007 0.152,-0C0.134,0.007 0.12,0.019 0.111,0.033C0.101,0.048 0.096,0.066 0.096,0.088C0.096,0.117 0.108,0.139 0.133,0.154C0.157,0.169 0.192,0.177 0.237,0.177ZM0.258,-0.251C0.297,-0.251 0.326,-0.261 0.346,-0.28C0.365,-0.3 0.375,-0.328 0.375,-0.366C0.375,-0.406 0.365,-0.436 0.345,-0.456C0.325,-0.476 0.296,-0.486 0.257,-0.486C0.22,-0.486 0.192,-0.476 0.172,-0.455C0.152,-0.434 0.142,-0.404 0.142,-0.364C0.142,-0.328 0.152,-0.3 0.172,-0.28C0.192,-0.261 0.221,-0.251 0.258,-0.251Z" style="fill:rgb(51,51,51);fill-rule:nonzero;"/>
        </g>
        <g transform="matrix(12.5,0,0,12.5,891.356,56.1997)">
            <path d="M0.292,-0.545C0.337,-0.545 0.376,-0.535 0.409,-0.515C0.441,-0.494 0.466,-0.466 0.483,-0.43C0.501,-0.394 0.509,-0.351 0.509,-0.303L0.509,-0.252L0.14,-0.252C0.141,-0.19 0.156,-0.142 0.187,-0.109C0.217,-0.076 0.259,-0.06 0.314,-0.06C0.348,-0.06 0.378,-0.063 0.404,-0.069C0.43,-0.075 0.457,-0.084 0.485,-0.096L0.485,-0.025C0.458,-0.013 0.432,-0.004 0.405,0.001C0.378,0.007 0.347,0.01 0.311,0.01C0.26,0.01 0.215,-0.001 0.177,-0.022C0.138,-0.043 0.109,-0.074 0.087,-0.114C0.066,-0.155 0.056,-0.205 0.056,-0.264C0.056,-0.321 0.065,-0.371 0.085,-0.413C0.104,-0.455 0.131,-0.488 0.167,-0.511C0.202,-0.534 0.244,-0.545 0.292,-0.545ZM0.291,-0.479C0.247,-0.479 0.213,-0.464 0.187,-0.436C0.161,-0.408 0.146,-0.368 0.141,-0.317L0.424,-0.317C0.424,-0.349 0.419,-0.377 0.409,-0.402C0.4,-0.426 0.385,-0.445 0.366,-0.458C0.346,-0.472 0.321,-0.479 0.291,-0.479Z" style="fill:rgb(51,51,51);fill-rule:nonzero;"/>
        </g>
        <g transform="matrix(12.5,0,0,12.5,898.375,56.1997)">
            <path d="M0.339,-0.545C0.402,-0.545 0.45,-0.529 0.483,-0.498C0.515,-0.467 0.532,-0.417 0.532,-0.349L0.532,-0L0.452,-0L0.452,-0.343C0.452,-0.388 0.441,-0.421 0.421,-0.443C0.401,-0.465 0.37,-0.477 0.328,-0.477C0.268,-0.477 0.227,-0.46 0.203,-0.426C0.179,-0.393 0.167,-0.344 0.167,-0.28L0.167,-0L0.085,-0L0.085,-0.535L0.151,-0.535L0.163,-0.458L0.167,-0.458C0.179,-0.477 0.193,-0.493 0.211,-0.506C0.229,-0.518 0.248,-0.528 0.27,-0.535C0.292,-0.542 0.315,-0.545 0.339,-0.545Z" style="fill:rgb(51,51,51);fill-rule:nonzero;"/>
        </g>
        <g transform="matrix(12.5,0,0,12.5,906.041,56.1997)">
            <path d="M0.073,-0.051C0.073,-0.074 0.079,-0.09 0.09,-0.099C0.101,-0.109 0.114,-0.114 0.13,-0.114C0.147,-0.114 0.161,-0.109 0.172,-0.099C0.184,-0.09 0.189,-0.074 0.189,-0.051C0.189,-0.028 0.184,-0.012 0.172,-0.002C0.161,0.009 0.147,0.014 0.13,0.014C0.114,0.014 0.101,0.009 0.09,-0.002C0.079,-0.012 0.073,-0.028 0.073,-0.051Z" style="fill:rgb(51,51,51);fill-rule:nonzero;"/>
        </g>
        <g transform="matrix(12.5,0,0,12.5,751.927,74.9497)">
            <path d="M0.909,-0.714L0.718,-0L0.634,-0L0.493,-0.48C0.488,-0.494 0.484,-0.508 0.481,-0.522C0.477,-0.536 0.473,-0.549 0.47,-0.561C0.467,-0.574 0.464,-0.585 0.462,-0.594C0.46,-0.604 0.458,-0.611 0.458,-0.616C0.457,-0.611 0.456,-0.604 0.454,-0.595C0.452,-0.585 0.45,-0.574 0.447,-0.562C0.444,-0.55 0.441,-0.536 0.437,-0.522C0.434,-0.508 0.43,-0.494 0.425,-0.48L0.288,-0L0.204,-0L0.015,-0.714L0.101,-0.714L0.216,-0.266C0.22,-0.251 0.223,-0.236 0.227,-0.222C0.23,-0.207 0.233,-0.193 0.236,-0.18C0.239,-0.166 0.241,-0.153 0.244,-0.14C0.246,-0.127 0.248,-0.114 0.25,-0.102C0.252,-0.114 0.254,-0.128 0.256,-0.141C0.259,-0.155 0.262,-0.169 0.265,-0.184C0.268,-0.198 0.271,-0.212 0.275,-0.227C0.279,-0.242 0.283,-0.256 0.287,-0.271L0.416,-0.714L0.501,-0.714L0.635,-0.268C0.639,-0.252 0.644,-0.237 0.647,-0.222C0.651,-0.207 0.655,-0.193 0.658,-0.178C0.661,-0.164 0.664,-0.151 0.666,-0.138C0.669,-0.125 0.671,-0.113 0.673,-0.102C0.675,-0.118 0.678,-0.134 0.681,-0.152C0.684,-0.169 0.688,-0.188 0.693,-0.207C0.697,-0.226 0.702,-0.246 0.707,-0.267L0.822,-0.714L0.909,-0.714Z" style="fill:rgb(51,51,51);fill-rule:nonzero;"/>
        </g>
        <g transform="matrix(12.5,0,0,12.5,763.469,74.9497)">
            <path d="M0.286,-0.544C0.349,-0.544 0.397,-0.53 0.428,-0.501C0.459,-0.472 0.474,-0.427 0.474,-0.364L0.474,-0L0.415,-0L0.399,-0.079L0.396,-0.079C0.381,-0.06 0.365,-0.043 0.349,-0.03C0.332,-0.017 0.314,-0.007 0.292,-0C0.271,0.006 0.245,0.01 0.214,0.01C0.181,0.01 0.152,0.004 0.127,-0.007C0.102,-0.019 0.082,-0.036 0.068,-0.059C0.053,-0.082 0.046,-0.111 0.046,-0.147C0.046,-0.2 0.067,-0.241 0.109,-0.27C0.152,-0.299 0.216,-0.314 0.303,-0.317L0.395,-0.321L0.395,-0.354C0.395,-0.4 0.385,-0.432 0.365,-0.451C0.345,-0.469 0.317,-0.479 0.281,-0.479C0.253,-0.479 0.227,-0.474 0.201,-0.466C0.176,-0.458 0.152,-0.449 0.129,-0.438L0.104,-0.499C0.128,-0.511 0.156,-0.522 0.187,-0.531C0.218,-0.54 0.251,-0.544 0.286,-0.544ZM0.394,-0.264L0.313,-0.26C0.246,-0.258 0.199,-0.247 0.171,-0.228C0.144,-0.208 0.13,-0.181 0.13,-0.146C0.13,-0.115 0.14,-0.093 0.158,-0.078C0.177,-0.063 0.201,-0.056 0.232,-0.056C0.279,-0.056 0.318,-0.069 0.349,-0.096C0.379,-0.122 0.394,-0.162 0.394,-0.214L0.394,-0.264Z" style="fill:rgb(51,51,51);fill-rule:nonzero;"/>
        </g>
        <g transform="matrix(12.5,0,0,12.5,770.415,74.9497)">
            <path d="M0.339,-0.545C0.402,-0.545 0.45,-0.529 0.483,-0.498C0.515,-0.467 0.532,-0.417 0.532,-0.349L0.532,-0L0.452,-0L0.452,-0.343C0.452,-0.388 0.441,-0.421 0.421,-0.443C0.401,-0.465 0.37,-0.477 0.328,-0.477C0.268,-0.477 0.227,-0.46 0.203,-0.426C0.179,-0.393 0.167,-0.344 0.167,-0.28L0.167,-0L0.085,-0L0.085,-0.535L0.151,-0.535L0.163,-0.458L0.167,-0.458C0.179,-0.477 0.193,-0.493 0.211,-0.506C0.229,-0.518 0.248,-0.528 0.27,-0.535C0.292,-0.542 0.315,-0.545 0.339,-0.545Z" style="fill:rgb(51,51,51);fill-rule:nonzero;"/>
        </g>
        <g transform="matrix(12.5,0,0,12.5,778.081,74.9497)">
            <path d="M0.339,-0.545C0.402,-0.545 0.45,-0.529 0.483,-0.498C0.515,-0.467 0.532,-0.417 0.532,-0.349L0.532,-0L0.452,-0L0.452,-0.343C0.452,-0.388 0.441,-0.421 0.421,-0.443C0.401,-0.465 0.37,-0.477 0.328,-0.477C0.268,-0.477 0.227,-0.46 0.203,-0.426C0.179,-0.393 0.167,-0.344 0.167,-0.28L0.167,-0L0.085,-0L0.085,-0.535L0.151,-0.535L0.163,-0.458L0.167,-0.458C0.179,-0.477 0.193,-0.493 0.211,-0.506C0.229,-0.518 0.248,-0.528 0.27,-0.535C0.292,-0.542 0.315,-0.545 0.339,-0.545Z" style="fill:rgb(51,51,51);fill-rule:nonzero;"/>
        </g>
        <g transform="matrix(12.5,0,0,12.5,788.994,74.9497)">
            <path d="M0.167,-0.535L0.167,-0L0.085,-0L0.085,-0.535L0.167,-0.535ZM0.127,-0.735C0.14,-0.735 0.152,-0.731 0.161,-0.722C0.171,-0.714 0.176,-0.7 0.176,-0.682C0.176,-0.664 0.171,-0.651 0.161,-0.642C0.152,-0.633 0.14,-0.629 0.127,-0.629C0.113,-0.629 0.101,-0.633 0.092,-0.642C0.083,-0.651 0.078,-0.664 0.078,-0.682C0.078,-0.7 0.083,-0.714 0.092,-0.722C0.101,-0.731 0.113,-0.735 0.127,-0.735Z" style="fill:rgb(51,51,51);fill-rule:nonzero;"/>
        </g>
        <g transform="matrix(12.5,0,0,12.5,792.149,74.9497)">
            <path d="M0.667,-0.545C0.725,-0.545 0.77,-0.53 0.8,-0.499C0.83,-0.468 0.845,-0.419 0.845,-0.351L0.845,-0L0.765,-0L0.765,-0.347C0.765,-0.39 0.755,-0.422 0.737,-0.444C0.718,-0.466 0.69,-0.477 0.653,-0.477C0.602,-0.477 0.564,-0.462 0.541,-0.432C0.517,-0.402 0.505,-0.358 0.505,-0.299L0.505,-0L0.425,-0L0.425,-0.347C0.425,-0.376 0.421,-0.4 0.412,-0.419C0.404,-0.438 0.392,-0.453 0.375,-0.462C0.359,-0.472 0.338,-0.477 0.313,-0.477C0.278,-0.477 0.249,-0.469 0.228,-0.455C0.206,-0.44 0.191,-0.418 0.181,-0.389C0.171,-0.361 0.167,-0.325 0.167,-0.283L0.167,-0L0.085,-0L0.085,-0.535L0.151,-0.535L0.163,-0.459L0.167,-0.459C0.178,-0.478 0.192,-0.494 0.208,-0.506C0.224,-0.519 0.243,-0.529 0.263,-0.535C0.283,-0.542 0.304,-0.545 0.327,-0.545C0.368,-0.545 0.402,-0.537 0.429,-0.522C0.457,-0.507 0.477,-0.484 0.489,-0.453L0.494,-0.453C0.511,-0.484 0.535,-0.507 0.566,-0.522C0.597,-0.537 0.63,-0.545 0.667,-0.545Z" style="fill:rgb(51,51,51);fill-rule:nonzero;"/>
        </g>
        <g transform="matrix(12.5,0,0,12.5,803.722,74.9497)">
            <path d="M0.667,-0.545C0.725,-0.545 0.77,-0.53 0.8,-0.499C0.83,-0.468 0.845,-0.419 0.845,-0.351L0.845,-0L0.765,-0L0.765,-0.347C0.765,-0.39 0.755,-0.422 0.737,-0.444C0.718,-0.466 0.69,-0.477 0.653,-0.477C0.602,-0.477 0.564,-0.462 0.541,-0.432C0.517,-0.402 0.505,-0.358 0.505,-0.299L0.505,-0L0.425,-0L0.425,-0.347C0.425,-0.376 0.421,-0.4 0.412,-0.419C0.404,-0.438 0.392,-0.453 0.375,-0.462C0.359,-0.472 0.338,-0.477 0.313,-0.477C0.278,-0.477 0.249,-0.469 0.228,-0.455C0.206,-0.44 0.191,-0.418 0.181,-0.389C0.171,-0.361 0.167,-0.325 0.167,-0.283L0.167,-0L0.085,-0L0.085,-0.535L0.151,-0.535L0.163,-0.459L0.167,-0.459C0.178,-0.478 0.192,-0.494 0.208,-0.506C0.224,-0.519 0.243,-0.529 0.263,-0.535C0.283,-0.542 0.304,-0.545 0.327,-0.545C0.368,-0.545 0.402,-0.537 0.429,-0.522C0.457,-0.507 0.477,-0.484 0.489,-0.453L0.494,-0.453C0.511,-0.484 0.535,-0.507 0.566,-0.522C0.597,-0.537 0.63,-0.545 0.667,-0.545Z" style="fill:rgb(51,51,51);fill-rule:nonzero;"/>
        </g>
        <g transform="matrix(12.5,0,0,12.5,815.294,74.9497)">
            <path d="M0.292,-0.545C0.337,-0.545 0.376,-0.535 0.409,-0.515C0.441,-0.494 0.466,-0.466 0.483,-0.43C0.501,-0.394 0.509,-0.351 0.509,-0.303L0.509,-0.252L0.14,-0.252C0.141,-0.19 0.156,-0.142 0.187,-0.109C0.217,-0.076 0.259,-0.06 0.314,-0.06C0.348,-0.06 0.378,-0.063 0.404,-0.069C0.43,-0.075 0.457,-0.084 0.485,-0.096L0.485,-0.025C0.458,-0.013 0.432,-0.004 0.405,0.001C0.378,0.007 0.347,0.01 0.311,0.01C0.26,0.01 0.215,-0.001 0.177,-0.022C0.138,-0.043 0.109,-0.074 0.087,-0.114C0.066,-0.155 0.056,-0.205 0.056,-0.264C0.056,-0.321 0.065,-0.371 0.085,-0.413C0.104,-0.455 0.131,-0.488 0.167,-0.511C0.202,-0.534 0.244,-0.545 0.292,-0.545ZM0.291,-0.479C0.247,-0.479 0.213,-0.464 0.187,-0.436C0.161,-0.408 0.146,-0.368 0.141,-0.317L0.424,-0.317C0.424,-0.349 0.419,-0.377 0.409,-0.402C0.4,-0.426 0.385,-0.445 0.366,-0.458C0.346,-0.472 0.321,-0.479 0.291,-0.479Z" style="fill:rgb(51,51,51);fill-rule:nonzero;"/>
        </g>
        <g transform="matrix(12.5,0,0,12.5,822.313,74.9497)">
            <path d="M0.329,-0.545C0.339,-0.545 0.351,-0.544 0.362,-0.543C0.374,-0.542 0.384,-0.541 0.394,-0.539L0.383,-0.463C0.375,-0.466 0.365,-0.467 0.354,-0.469C0.343,-0.47 0.333,-0.471 0.324,-0.471C0.302,-0.471 0.282,-0.466 0.263,-0.458C0.244,-0.449 0.227,-0.437 0.213,-0.421C0.199,-0.405 0.187,-0.385 0.179,-0.363C0.171,-0.34 0.167,-0.315 0.167,-0.287L0.167,-0L0.085,-0L0.085,-0.535L0.153,-0.535L0.162,-0.437L0.165,-0.437C0.176,-0.456 0.189,-0.475 0.205,-0.491C0.221,-0.507 0.239,-0.521 0.26,-0.53C0.28,-0.54 0.303,-0.545 0.329,-0.545Z" style="fill:rgb(51,51,51);fill-rule:nonzero;"/>
        </g>
        <g transform="matrix(12.5,0,0,12.5,830.669,74.9497)">
            <path d="M0.5,-0.19C0.5,-0.148 0.49,-0.112 0.469,-0.082C0.448,-0.052 0.419,-0.029 0.381,-0.014C0.343,0.002 0.299,0.01 0.248,0.01C0.221,0.01 0.195,0.008 0.171,0.006C0.147,0.003 0.125,-0 0.104,-0.005C0.084,-0.01 0.067,-0.016 0.051,-0.023L0.051,-0.103C0.076,-0.093 0.105,-0.084 0.141,-0.075C0.176,-0.066 0.213,-0.062 0.251,-0.062C0.287,-0.062 0.317,-0.067 0.342,-0.076C0.367,-0.086 0.385,-0.1 0.398,-0.118C0.411,-0.136 0.417,-0.158 0.417,-0.183C0.417,-0.208 0.412,-0.228 0.401,-0.244C0.391,-0.261 0.373,-0.276 0.348,-0.289C0.323,-0.303 0.289,-0.317 0.246,-0.333C0.216,-0.343 0.189,-0.355 0.166,-0.368C0.143,-0.381 0.124,-0.395 0.108,-0.412C0.092,-0.428 0.08,-0.447 0.073,-0.468C0.065,-0.49 0.061,-0.514 0.061,-0.542C0.061,-0.58 0.07,-0.613 0.09,-0.64C0.109,-0.667 0.136,-0.688 0.17,-0.702C0.205,-0.717 0.244,-0.724 0.289,-0.724C0.327,-0.724 0.362,-0.721 0.394,-0.713C0.427,-0.706 0.456,-0.697 0.483,-0.685L0.458,-0.613C0.432,-0.624 0.405,-0.633 0.376,-0.64C0.347,-0.647 0.317,-0.651 0.287,-0.651C0.256,-0.651 0.23,-0.646 0.209,-0.637C0.188,-0.628 0.172,-0.616 0.161,-0.6C0.15,-0.583 0.145,-0.564 0.145,-0.542C0.145,-0.516 0.15,-0.496 0.16,-0.479C0.171,-0.462 0.188,-0.448 0.211,-0.435C0.234,-0.422 0.265,-0.409 0.304,-0.395C0.346,-0.379 0.381,-0.363 0.411,-0.346C0.44,-0.329 0.462,-0.308 0.478,-0.283C0.493,-0.259 0.5,-0.228 0.5,-0.19Z" style="fill:rgb(51,51,51);fill-rule:nonzero;"/>
        </g>
        <g transform="matrix(12.5,0,0,12.5,837.523,74.9497)">
            <path d="M0.167,-0.535L0.167,-0L0.085,-0L0.085,-0.535L0.167,-0.535ZM0.127,-0.735C0.14,-0.735 0.152,-0.731 0.161,-0.722C0.171,-0.714 0.176,-0.7 0.176,-0.682C0.176,-0.664 0.171,-0.651 0.161,-0.642C0.152,-0.633 0.14,-0.629 0.127,-0.629C0.113,-0.629 0.101,-0.633 0.092,-0.642C0.083,-0.651 0.078,-0.664 0.078,-0.682C0.078,-0.7 0.083,-0.714 0.092,-0.722C0.101,-0.731 0.113,-0.735 0.127,-0.735Z" style="fill:rgb(51,51,51);fill-rule:nonzero;"/>
        </g>
        <g transform="matrix(12.5,0,0,12.5,840.678,74.9497)">
            <path d="M0.292,-0.545C0.337,-0.545 0.376,-0.535 0.409,-0.515C0.441,-0.494 0.466,-0.466 0.483,-0.43C0.501,-0.394 0.509,-0.351 0.509,-0.303L0.509,-0.252L0.14,-0.252C0.141,-0.19 0.156,-0.142 0.187,-0.109C0.217,-0.076 0.259,-0.06 0.314,-0.06C0.348,-0.06 0.378,-0.063 0.404,-0.069C0.43,-0.075 0.457,-0.084 0.485,-0.096L0.485,-0.025C0.458,-0.013 0.432,-0.004 0.405,0.001C0.378,0.007 0.347,0.01 0.311,0.01C0.26,0.01 0.215,-0.001 0.177,-0.022C0.138,-0.043 0.109,-0.074 0.087,-0.114C0.066,-0.155 0.056,-0.205 0.056,-0.264C0.056,-0.321 0.065,-0.371 0.085,-0.413C0.104,-0.455 0.131,-0.488 0.167,-0.511C0.202,-0.534 0.244,-0.545 0.292,-0.545ZM0.291,-0.479C0.247,-0.479 0.213,-0.464 0.187,-0.436C0.161,-0.408 0.146,-0.368 0.141,-0.317L0.424,-0.317C0.424,-0.349 0.419,-0.377 0.409,-0.402C0.4,-0.426 0.385,-0.445 0.366,-0.458C0.346,-0.472 0.321,-0.479 0.291,-0.479Z" style="fill:rgb(51,51,51);fill-rule:nonzero;"/>
        </g>
        <g transform="matrix(12.5,0,0,12.5,850.944,74.9497)">
            <path d="M0.667,-0.545C0.725,-0.545 0.77,-0.53 0.8,-0.499C0.83,-0.468 0.845,-0.419 0.845,-0.351L0.845,-0L0.765,-0L0.765,-0.347C0.765,-0.39 0.755,-0.422 0.737,-0.444C0.718,-0.466 0.69,-0.477 0.653,-0.477C0.602,-0.477 0.564,-0.462 0.541,-0.432C0.517,-0.402 0.505,-0.358 0.505,-0.299L0.505,-0L0.425,-0L0.425,-0.347C0.425,-0.376 0.421,-0.4 0.412,-0.419C0.404,-0.438 0.392,-0.453 0.375,-0.462C0.359,-0.472 0.338,-0.477 0.313,-0.477C0.278,-0.477 0.249,-0.469 0.228,-0.455C0.206,-0.44 0.191,-0.418 0.181,-0.389C0.171,-0.361 0.167,-0.325 0.167,-0.283L0.167,-0L0.085,-0L0.085,-0.535L0.151,-0.535L0.163,-0.459L0.167,-0.459C0.178,-0.478 0.192,-0.494 0.208,-0.506C0.224,-0.519 0.243,-0.529 0.263,-0.535C0.283,-0.542 0.304,-0.545 0.327,-0.545C0.368,-0.545 0.402,-0.537 0.429,-0.522C0.457,-0.507 0.477,-0.484 0.489,-0.453L0.494,-0.453C0.511,-0.484 0.535,-0.507 0.566,-0.522C0.597,-0.537 0.63,-0.545 0.667,-0.545Z" style="fill:rgb(51,51,51);fill-rule:nonzero;"/>
        </g>
        <g transform="matrix(12.5,0,0,12.5,862.517,74.9497)">
            <path d="M0.167,-0.535L0.167,-0L0.085,-0L0.085,-0.535L0.167,-0.535ZM0.127,-0.735C0.14,-0.735 0.152,-0.731 0.161,-0.722C0.171,-0.714 0.176,-0.7 0.176,-0.682C0.176,-0.664 0.171,-0.651 0.161,-0.642C0.152,-0.633 0.14,-0.629 0.127,-0.629C0.113,-0.629 0.101,-0.633 0.092,-0.642C0.083,-0.651 0.078,-0.664 0.078,-0.682C0.078,-0.7 0.083,-0.714 0.092,-0.722C0.101,-0.731 0.113,-0.735 0.127,-0.735Z" style="fill:rgb(51,51,51);fill-rule:nonzero;"/>
        </g>
        <g transform="matrix(12.5,0,0,12.5,865.672,74.9497)">
            <path d="M0.3,0.01C0.252,0.01 0.209,-0 0.172,-0.02C0.136,-0.04 0.107,-0.07 0.086,-0.111C0.066,-0.152 0.056,-0.203 0.056,-0.265C0.056,-0.329 0.066,-0.382 0.088,-0.424C0.11,-0.465 0.14,-0.495 0.178,-0.515C0.216,-0.535 0.259,-0.545 0.308,-0.545C0.334,-0.545 0.36,-0.542 0.385,-0.537C0.41,-0.531 0.43,-0.525 0.446,-0.517L0.422,-0.449C0.406,-0.455 0.387,-0.461 0.365,-0.466C0.344,-0.472 0.324,-0.474 0.306,-0.474C0.269,-0.474 0.238,-0.466 0.213,-0.45C0.189,-0.434 0.17,-0.411 0.158,-0.38C0.146,-0.349 0.14,-0.311 0.14,-0.266C0.14,-0.222 0.146,-0.185 0.157,-0.155C0.169,-0.124 0.187,-0.101 0.211,-0.085C0.234,-0.069 0.264,-0.061 0.299,-0.061C0.328,-0.061 0.353,-0.064 0.376,-0.07C0.399,-0.076 0.419,-0.083 0.438,-0.091L0.438,-0.019C0.42,-0.009 0.4,-0.002 0.378,0.002C0.356,0.007 0.33,0.01 0.3,0.01Z" style="fill:rgb(51,51,51);fill-rule:nonzero;"/>
        </g>
        <g transform="matrix(12.5,0,0,12.5,871.66,74.9497)">
            <path d="M0.167,-0.76L0.167,-0.533C0.167,-0.52 0.166,-0.507 0.166,-0.493C0.165,-0.48 0.164,-0.468 0.162,-0.457L0.167,-0.457C0.179,-0.476 0.193,-0.492 0.21,-0.505C0.227,-0.517 0.246,-0.527 0.268,-0.534C0.29,-0.541 0.313,-0.544 0.337,-0.544C0.38,-0.544 0.416,-0.537 0.445,-0.523C0.474,-0.51 0.496,-0.489 0.51,-0.46C0.524,-0.431 0.532,-0.394 0.532,-0.349L0.532,-0L0.452,-0L0.452,-0.343C0.452,-0.388 0.441,-0.421 0.421,-0.443C0.401,-0.465 0.37,-0.477 0.328,-0.477C0.288,-0.477 0.256,-0.469 0.233,-0.454C0.209,-0.439 0.192,-0.417 0.182,-0.387C0.172,-0.358 0.167,-0.322 0.167,-0.28L0.167,-0L0.085,-0L0.085,-0.76L0.167,-0.76Z" style="fill:rgb(51,51,51);fill-rule:nonzero;"/>
        </g>
        <g transform="matrix(12.5,0,0,12.5,882.573,74.9497)">
            <path d="M0.167,-0.76L0.167,-0.57C0.167,-0.548 0.166,-0.527 0.165,-0.506C0.164,-0.486 0.163,-0.47 0.162,-0.458L0.167,-0.458C0.181,-0.483 0.202,-0.503 0.23,-0.52C0.258,-0.536 0.293,-0.544 0.336,-0.544C0.403,-0.544 0.456,-0.521 0.496,-0.475C0.536,-0.428 0.556,-0.36 0.556,-0.268C0.556,-0.208 0.547,-0.157 0.529,-0.116C0.511,-0.074 0.485,-0.043 0.452,-0.022C0.418,-0.001 0.379,0.01 0.334,0.01C0.292,0.01 0.257,0.002 0.23,-0.014C0.203,-0.03 0.182,-0.049 0.167,-0.072L0.161,-0.072L0.144,-0L0.085,-0L0.085,-0.76L0.167,-0.76ZM0.323,-0.477C0.284,-0.477 0.253,-0.469 0.23,-0.454C0.208,-0.439 0.191,-0.416 0.181,-0.385C0.171,-0.355 0.167,-0.317 0.167,-0.27L0.167,-0.266C0.167,-0.198 0.178,-0.147 0.2,-0.111C0.223,-0.075 0.264,-0.058 0.323,-0.058C0.373,-0.058 0.41,-0.076 0.435,-0.112C0.46,-0.149 0.472,-0.201 0.472,-0.269C0.472,-0.338 0.46,-0.389 0.435,-0.424C0.411,-0.459 0.373,-0.477 0.323,-0.477Z" style="fill:rgb(51,51,51);fill-rule:nonzero;"/>
        </g>
        <g transform="matrix(12.5,0,0,12.5,890.221,74.9497)">
            <path d="M0.329,-0.545C0.339,-0.545 0.351,-0.544 0.362,-0.543C0.374,-0.542 0.384,-0.541 0.394,-0.539L0.383,-0.463C0.375,-0.466 0.365,-0.467 0.354,-0.469C0.343,-0.47 0.333,-0.471 0.324,-0.471C0.302,-0.471 0.282,-0.466 0.263,-0.458C0.244,-0.449 0.227,-0.437 0.213,-0.421C0.199,-0.405 0.187,-0.385 0.179,-0.363C0.171,-0.34 0.167,-0.315 0.167,-0.287L0.167,-0L0.085,-0L0.085,-0.535L0.153,-0.535L0.162,-0.437L0.165,-0.437C0.176,-0.456 0.189,-0.475 0.205,-0.491C0.221,-0.507 0.239,-0.521 0.26,-0.53C0.28,-0.54 0.303,-0.545 0.329,-0.545Z" style="fill:rgb(51,51,51);fill-rule:nonzero;"/>
        </g>
        <g transform="matrix(12.5,0,0,12.5,895.329,74.9497)">
            <path d="M0.286,-0.544C0.349,-0.544 0.397,-0.53 0.428,-0.501C0.459,-0.472 0.474,-0.427 0.474,-0.364L0.474,-0L0.415,-0L0.399,-0.079L0.396,-0.079C0.381,-0.06 0.365,-0.043 0.349,-0.03C0.332,-0.017 0.314,-0.007 0.292,-0C0.271,0.006 0.245,0.01 0.214,0.01C0.181,0.01 0.152,0.004 0.127,-0.007C0.102,-0.019 0.082,-0.036 0.068,-0.059C0.053,-0.082 0.046,-0.111 0.046,-0.147C0.046,-0.2 0.067,-0.241 0.109,-0.27C0.152,-0.299 0.216,-0.314 0.303,-0.317L0.395,-0.321L0.395,-0.354C0.395,-0.4 0.385,-0.432 0.365,-0.451C0.345,-0.469 0.317,-0.479 0.281,-0.479C0.253,-0.479 0.227,-0.474 0.201,-0.466C0.176,-0.458 0.152,-0.449 0.129,-0.438L0.104,-0.499C0.128,-0.511 0.156,-0.522 0.187,-0.531C0.218,-0.54 0.251,-0.544 0.286,-0.544ZM0.394,-0.264L0.313,-0.26C0.246,-0.258 0.199,-0.247 0.171,-0.228C0.144,-0.208 0.13,-0.181 0.13,-0.146C0.13,-0.115 0.14,-0.093 0.158,-0.078C0.177,-0.063 0.201,-0.056 0.232,-0.056C0.279,-0.056 0.318,-0.069 0.349,-0.096C0.379,-0.122 0.394,-0.162 0.394,-0.214L0.394,-0.264Z" style="fill:rgb(51,51,51);fill-rule:nonzero;"/>
        </g>
        <g transform="matrix(12.5,0,0,12.5,902.275,74.9497)">
            <path d="M0.527,-0.535L0.527,-0L0.461,-0L0.449,-0.075L0.445,-0.075C0.434,-0.057 0.419,-0.041 0.402,-0.028C0.384,-0.016 0.365,-0.006 0.343,0C0.321,0.007 0.297,0.01 0.272,0.01C0.23,0.01 0.195,0.003 0.166,-0.011C0.137,-0.024 0.116,-0.046 0.101,-0.074C0.087,-0.103 0.08,-0.14 0.08,-0.185L0.08,-0.535L0.162,-0.535L0.162,-0.19C0.162,-0.146 0.172,-0.113 0.192,-0.091C0.212,-0.069 0.243,-0.058 0.284,-0.058C0.324,-0.058 0.356,-0.065 0.379,-0.08C0.403,-0.095 0.42,-0.117 0.43,-0.146C0.441,-0.175 0.446,-0.211 0.446,-0.253L0.446,-0.535L0.527,-0.535Z" style="fill:rgb(51,51,51);fill-rule:nonzero;"/>
        </g>
        <g transform="matrix(12.5,0,0,12.5,909.941,74.9497)">
            <path d="M0.3,0.01C0.252,0.01 0.209,-0 0.172,-0.02C0.136,-0.04 0.107,-0.07 0.086,-0.111C0.066,-0.152 0.056,-0.203 0.056,-0.265C0.056,-0.329 0.066,-0.382 0.088,-0.424C0.11,-0.465 0.14,-0.495 0.178,-0.515C0.216,-0.535 0.259,-0.545 0.308,-0.545C0.334,-0.545 0.36,-0.542 0.385,-0.537C0.41,-0.531 0.43,-0.525 0.446,-0.517L0.422,-0.449C0.406,-0.455 0.387,-0.461 0.365,-0.466C0.344,-0.472 0.324,-0.474 0.306,-0.474C0.269,-0.474 0.238,-0.466 0.213,-0.45C0.189,-0.434 0.17,-0.411 0.158,-0.38C0.146,-0.349 0.14,-0.311 0.14,-0.266C0.14,-0.222 0.146,-0.185 0.157,-0.155C0.169,-0.124 0.187,-0.101 0.211,-0.085C0.234,-0.069 0.264,-0.061 0.299,-0.061C0.328,-0.061 0.353,-0.064 0.376,-0.07C0.399,-0.076 0.419,-0.083 0.438,-0.091L0.438,-0.019C0.42,-0.009 0.4,-0.002 0.378,0.002C0.356,0.007 0.33,0.01 0.3,0.01Z" style="fill:rgb(51,51,51);fill-rule:nonzero;"/>
        </g>
        <g transform="matrix(12.5,0,0,12.5,915.929,74.9497)">
            <path d="M0.167,-0.76L0.167,-0.533C0.167,-0.52 0.166,-0.507 0.166,-0.493C0.165,-0.48 0.164,-0.468 0.162,-0.457L0.167,-0.457C0.179,-0.476 0.193,-0.492 0.21,-0.505C0.227,-0.517 0.246,-0.527 0.268,-0.534C0.29,-0.541 0.313,-0.544 0.337,-0.544C0.38,-0.544 0.416,-0.537 0.445,-0.523C0.474,-0.51 0.496,-0.489 0.51,-0.46C0.524,-0.431 0.532,-0.394 0.532,-0.349L0.532,-0L0.452,-0L0.452,-0.343C0.452,-0.388 0.441,-0.421 0.421,-0.443C0.401,-0.465 0.37,-0.477 0.328,-0.477C0.288,-0.477 0.256,-0.469 0.233,-0.454C0.209,-0.439 0.192,-0.417 0.182,-0.387C0.172,-0.358 0.167,-0.322 0.167,-0.28L0.167,-0L0.085,-0L0.085,-0.76L0.167,-0.76Z" style="fill:rgb(51,51,51);fill-rule:nonzero;"/>
        </g>
        <g transform="matrix(12.5,0,0,12.5,923.595,74.9497)">
            <path d="M0.292,-0.545C0.337,-0.545 0.376,-0.535 0.409,-0.515C0.441,-0.494 0.466,-0.466 0.483,-0.43C0.501,-0.394 0.509,-0.351 0.509,-0.303L0.509,-0.252L0.14,-0.252C0.141,-0.19 0.156,-0.142 0.187,-0.109C0.217,-0.076 0.259,-0.06 0.314,-0.06C0.348,-0.06 0.378,-0.063 0.404,-0.069C0.43,-0.075 0.457,-0.084 0.485,-0.096L0.485,-0.025C0.458,-0.013 0.432,-0.004 0.405,0.001C0.378,0.007 0.347,0.01 0.311,0.01C0.26,0.01 0.215,-0.001 0.177,-0.022C0.138,-0.043 0.109,-0.074 0.087,-0.114C0.066,-0.155 0.056,-0.205 0.056,-0.264C0.056,-0.321 0.065,-0.371 0.085,-0.413C0.104,-0.455 0.131,-0.488 0.167,-0.511C0.202,-0.534 0.244,-0.545 0.292,-0.545ZM0.291,-0.479C0.247,-0.479 0.213,-0.464 0.187,-0.436C0.161,-0.408 0.146,-0.368 0.141,-0.317L0.424,-0.317C0.424,-0.349 0.419,-0.377 0.409,-0.402C0.4,-0.426 0.385,-0.445 0.366,-0.458C0.346,-0.472 0.321,-0.479 0.291,-0.479Z" style="fill:rgb(51,51,51);fill-rule:nonzero;"/>
        </g>
        <g transform="matrix(12.5,0,0,12.5,930.614,74.9497)">
            <path d="M0.339,-0.545C0.402,-0.545 0.45,-0.529 0.483,-0.498C0.515,-0.467 0.532,-0.417 0.532,-0.349L0.532,-0L0.452,-0L0.452,-0.343C0.452,-0.388 0.441,-0.421 0.421,-0.443C0.401,-0.465 0.37,-0.477 0.328,-0.477C0.268,-0.477 0.227,-0.46 0.203,-0.426C0.179,-0.393 0.167,-0.344 0.167,-0.28L0.167,-0L0.085,-0L0.085,-0.535L0.151,-0.535L0.163,-0.458L0.167,-0.458C0.179,-0.477 0.193,-0.493 0.211,-0.506C0.229,-0.518 0.248,-0.528 0.27,-0.535C0.292,-0.542 0.315,-0.545 0.339,-0.545Z" style="fill:rgb(51,51,51);fill-rule:nonzero;"/>
        </g>
        <g transform="matrix(12.5,0,0,12.5,938.28,74.9497)">
            <path d="M0.178,-0.116L0.185,-0.105C0.179,-0.081 0.171,-0.056 0.162,-0.029C0.153,-0.002 0.144,0.025 0.133,0.052C0.122,0.08 0.112,0.105 0.101,0.129L0.041,0.129C0.047,0.103 0.054,0.075 0.061,0.047C0.067,0.018 0.073,-0.011 0.078,-0.039C0.084,-0.067 0.088,-0.093 0.091,-0.116L0.178,-0.116Z" style="fill:rgb(51,51,51);fill-rule:nonzero;"/>
        </g>
        <g transform="matrix(12.5,0,0,12.5,944.762,74.9497)">
            <path d="M0.167,-0.535L0.167,-0L0.085,-0L0.085,-0.535L0.167,-0.535ZM0.127,-0.735C0.14,-0.735 0.152,-0.731 0.161,-0.722C0.171,-0.714 0.176,-0.7 0.176,-0.682C0.176,-0.664 0.171,-0.651 0.161,-0.642C0.152,-0.633 0.14,-0.629 0.127,-0.629C0.113,-0.629 0.101,-0.633 0.092,-0.642C0.083,-0.651 0.078,-0.664 0.078,-0.682C0.078,-0.7 0.083,-0.714 0.092,-0.722C0.101,-0.731 0.113,-0.735 0.127,-0.735Z" style="fill:rgb(51,51,51);fill-rule:nonzero;"/>
        </g>
        <g transform="matrix(12.5,0,0,12.5,947.917,74.9497)">
            <path d="M0.3,0.01C0.252,0.01 0.209,-0 0.172,-0.02C0.136,-0.04 0.107,-0.07 0.086,-0.111C0.066,-0.152 0.056,-0.203 0.056,-0.265C0.056,-0.329 0.066,-0.382 0.088,-0.424C0.11,-0.465 0.14,-0.495 0.178,-0.515C0.216,-0.535 0.259,-0.545 0.308,-0.545C0.334,-0.545 0.36,-0.542 0.385,-0.537C0.41,-0.531 0.43,-0.525 0.446,-0.517L0.422,-0.449C0.406,-0.455 0.387,-0.461 0.365,-0.466C0.344,-0.472 0.324,-0.474 0.306,-0.474C0.269,-0.474 0.238,-0.466 0.213,-0.45C0.189,-0.434 0.17,-0.411 0.158,-0.38C0.146,-0.349 0.14,-0.311 0.14,-0.266C0.14,-0.222 0.146,-0.185 0.157,-0.155C0.169,-0.124 0.187,-0.101 0.211,-0.085C0.234,-0.069 0.264,-0.061 0.299,-0.061C0.328,-0.061 0.353,-0.064 0.376,-0.07C0.399,-0.076 0.419,-0.083 0.438,-0.091L0.438,-0.019C0.42,-0.009 0.4,-0.002 0.378,0.002C0.356,0.007 0.33,0.01 0.3,0.01Z" style="fill:rgb(51,51,51);fill-rule:nonzero;"/>
        </g>
        <g transform="matrix(12.5,0,0,12.5,953.905,74.9497)">
            <path d="M0.167,-0.76L0.167,-0.533C0.167,-0.52 0.166,-0.507 0.166,-0.493C0.165,-0.48 0.164,-0.468 0.162,-0.457L0.167,-0.457C0.179,-0.476 0.193,-0.492 0.21,-0.505C0.227,-0.517 0.246,-0.527 0.268,-0.534C0.29,-0.541 0.313,-0.544 0.337,-0.544C0.38,-0.544 0.416,-0.537 0.445,-0.523C0.474,-0.51 0.496,-0.489 0.51,-0.46C0.524,-0.431 0.532,-0.394 0.532,-0.349L0.532,-0L0.452,-0L0.452,-0.343C0.452,-0.388 0.441,-0.421 0.421,-0.443C0.401,-0.465 0.37,-0.477 0.328,-0.477C0.288,-0.477 0.256,-0.469 0.233,-0.454C0.209,-0.439 0.192,-0.417 0.182,-0.387C0.172,-0.358 0.167,-0.322 0.167,-0.28L0.167,-0L0.085,-0L0.085,-0.76L0.167,-0.76Z" style="fill:rgb(51,51,51);fill-rule:nonzero;"/>
        </g>
        <g transform="matrix(12.5,0,0,12.5,751.927,93.6997)">
            <path d="M0.167,-0.76L0.167,-0.57C0.167,-0.548 0.166,-0.527 0.165,-0.506C0.164,-0.486 0.163,-0.47 0.162,-0.458L0.167,-0.458C0.181,-0.483 0.202,-0.503 0.23,-0.52C0.258,-0.536 0.293,-0.544 0.336,-0.544C0.403,-0.544 0.456,-0.521 0.496,-0.475C0.536,-0.428 0.556,-0.36 0.556,-0.268C0.556,-0.208 0.547,-0.157 0.529,-0.116C0.511,-0.074 0.485,-0.043 0.452,-0.022C0.418,-0.001 0.379,0.01 0.334,0.01C0.292,0.01 0.257,0.002 0.23,-0.014C0.203,-0.03 0.182,-0.049 0.167,-0.072L0.161,-0.072L0.144,-0L0.085,-0L0.085,-0.76L0.167,-0.76ZM0.323,-0.477C0.284,-0.477 0.253,-0.469 0.23,-0.454C0.208,-0.439 0.191,-0.416 0.181,-0.385C0.171,-0.355 0.167,-0.317 0.167,-0.27L0.167,-0.266C0.167,-0.198 0.178,-0.147 0.2,-0.111C0.223,-0.075 0.264,-0.058 0.323,-0.058C0.373,-0.058 0.41,-0.076 0.435,-0.112C0.46,-0.149 0.472,-0.201 0.472,-0.269C0.472,-0.338 0.46,-0.389 0.435,-0.424C0.411,-0.459 0.373,-0.477 0.323,-0.477Z" style="fill:rgb(51,51,51);fill-rule:nonzero;"/>
        </g>
        <g transform="matrix(12.5,0,0,12.5,759.575,93.6997)">
            <path d="M0.292,-0.545C0.337,-0.545 0.376,-0.535 0.409,-0.515C0.441,-0.494 0.466,-0.466 0.483,-0.43C0.501,-0.394 0.509,-0.351 0.509,-0.303L0.509,-0.252L0.14,-0.252C0.141,-0.19 0.156,-0.142 0.187,-0.109C0.217,-0.076 0.259,-0.06 0.314,-0.06C0.348,-0.06 0.378,-0.063 0.404,-0.069C0.43,-0.075 0.457,-0.084 0.485,-0.096L0.485,-0.025C0.458,-0.013 0.432,-0.004 0.405,0.001C0.378,0.007 0.347,0.01 0.311,0.01C0.26,0.01 0.215,-0.001 0.177,-0.022C0.138,-0.043 0.109,-0.074 0.087,-0.114C0.066,-0.155 0.056,-0.205 0.056,-0.264C0.056,-0.321 0.065,-0.371 0.085,-0.413C0.104,-0.455 0.131,-0.488 0.167,-0.511C0.202,-0.534 0.244,-0.545 0.292,-0.545ZM0.291,-0.479C0.247,-0.479 0.213,-0.464 0.187,-0.436C0.161,-0.408 0.146,-0.368 0.141,-0.317L0.424,-0.317C0.424,-0.349 0.419,-0.377 0.409,-0.402C0.4,-0.426 0.385,-0.445 0.366,-0.458C0.346,-0.472 0.321,-0.479 0.291,-0.479Z" style="fill:rgb(51,51,51);fill-rule:nonzero;"/>
        </g>
        <g transform="matrix(12.5,0,0,12.5,766.594,93.6997)">
            <path d="M0.324,-0.472L0.19,-0.472L0.19,-0L0.109,-0L0.109,-0.472L0.015,-0.472L0.015,-0.511L0.109,-0.538L0.109,-0.573C0.109,-0.618 0.116,-0.655 0.129,-0.683C0.143,-0.711 0.162,-0.732 0.188,-0.745C0.213,-0.758 0.244,-0.765 0.28,-0.765C0.301,-0.765 0.32,-0.763 0.337,-0.76C0.354,-0.756 0.369,-0.752 0.382,-0.748L0.361,-0.684C0.35,-0.687 0.337,-0.691 0.323,-0.694C0.31,-0.697 0.296,-0.698 0.281,-0.698C0.25,-0.698 0.227,-0.688 0.213,-0.668C0.198,-0.648 0.19,-0.617 0.19,-0.574L0.19,-0.535L0.324,-0.535L0.324,-0.472ZM0.503,-0.535L0.503,-0L0.422,-0L0.422,-0.535L0.503,-0.535ZM0.463,-0.735C0.477,-0.735 0.488,-0.731 0.498,-0.722C0.507,-0.714 0.512,-0.7 0.512,-0.682C0.512,-0.664 0.507,-0.651 0.498,-0.642C0.488,-0.633 0.477,-0.629 0.463,-0.629C0.449,-0.629 0.438,-0.633 0.428,-0.642C0.419,-0.651 0.415,-0.664 0.415,-0.682C0.415,-0.7 0.419,-0.714 0.428,-0.722C0.438,-0.731 0.449,-0.735 0.463,-0.735Z" style="fill:rgb(51,51,51);fill-rule:nonzero;"/>
        </g>
        <g transform="matrix(12.5,0,0,12.5,773.955,93.6997)">
            <path d="M0.339,-0.545C0.402,-0.545 0.45,-0.529 0.483,-0.498C0.515,-0.467 0.532,-0.417 0.532,-0.349L0.532,-0L0.452,-0L0.452,-0.343C0.452,-0.388 0.441,-0.421 0.421,-0.443C0.401,-0.465 0.37,-0.477 0.328,-0.477C0.268,-0.477 0.227,-0.46 0.203,-0.426C0.179,-0.393 0.167,-0.344 0.167,-0.28L0.167,-0L0.085,-0L0.085,-0.535L0.151,-0.535L0.163,-0.458L0.167,-0.458C0.179,-0.477 0.193,-0.493 0.211,-0.506C0.229,-0.518 0.248,-0.528 0.27,-0.535C0.292,-0.542 0.315,-0.545 0.339,-0.545Z" style="fill:rgb(51,51,51);fill-rule:nonzero;"/>
        </g>
        <g transform="matrix(12.5,0,0,12.5,781.621,93.6997)">
            <path d="M0.276,0.01C0.208,0.01 0.155,-0.013 0.115,-0.06C0.075,-0.106 0.056,-0.174 0.056,-0.266C0.056,-0.358 0.076,-0.427 0.116,-0.474C0.157,-0.521 0.21,-0.545 0.277,-0.545C0.306,-0.545 0.33,-0.541 0.352,-0.534C0.373,-0.526 0.391,-0.516 0.406,-0.504C0.422,-0.491 0.434,-0.477 0.445,-0.461L0.451,-0.461C0.449,-0.471 0.448,-0.485 0.447,-0.502C0.445,-0.52 0.445,-0.534 0.445,-0.545L0.445,-0.76L0.526,-0.76L0.526,-0L0.46,-0L0.448,-0.076L0.445,-0.076C0.435,-0.06 0.422,-0.046 0.406,-0.033C0.391,-0.02 0.373,-0.009 0.351,-0.002C0.33,0.006 0.305,0.01 0.276,0.01ZM0.289,-0.058C0.346,-0.058 0.386,-0.074 0.41,-0.106C0.434,-0.139 0.446,-0.187 0.446,-0.251L0.446,-0.266C0.446,-0.334 0.434,-0.386 0.412,-0.423C0.389,-0.459 0.348,-0.478 0.289,-0.478C0.239,-0.478 0.201,-0.458 0.177,-0.42C0.152,-0.382 0.14,-0.33 0.14,-0.264C0.14,-0.198 0.152,-0.147 0.177,-0.111C0.201,-0.076 0.238,-0.058 0.289,-0.058Z" style="fill:rgb(51,51,51);fill-rule:nonzero;"/>
        </g>
        <g transform="matrix(12.5,0,0,12.5,789.268,93.6997)">
            <path d="M0.292,-0.545C0.337,-0.545 0.376,-0.535 0.409,-0.515C0.441,-0.494 0.466,-0.466 0.483,-0.43C0.501,-0.394 0.509,-0.351 0.509,-0.303L0.509,-0.252L0.14,-0.252C0.141,-0.19 0.156,-0.142 0.187,-0.109C0.217,-0.076 0.259,-0.06 0.314,-0.06C0.348,-0.06 0.378,-0.063 0.404,-0.069C0.43,-0.075 0.457,-0.084 0.485,-0.096L0.485,-0.025C0.458,-0.013 0.432,-0.004 0.405,0.001C0.378,0.007 0.347,0.01 0.311,0.01C0.26,0.01 0.215,-0.001 0.177,-0.022C0.138,-0.043 0.109,-0.074 0.087,-0.114C0.066,-0.155 0.056,-0.205 0.056,-0.264C0.056,-0.321 0.065,-0.371 0.085,-0.413C0.104,-0.455 0.131,-0.488 0.167,-0.511C0.202,-0.534 0.244,-0.545 0.292,-0.545ZM0.291,-0.479C0.247,-0.479 0.213,-0.464 0.187,-0.436C0.161,-0.408 0.146,-0.368 0.141,-0.317L0.424,-0.317C0.424,-0.349 0.419,-0.377 0.409,-0.402C0.4,-0.426 0.385,-0.445 0.366,-0.458C0.346,-0.472 0.321,-0.479 0.291,-0.479Z" style="fill:rgb(51,51,51);fill-rule:nonzero;"/>
        </g>
        <g transform="matrix(12.5,0,0,12.5,799.535,93.6997)">
            <path d="M0.667,-0.545C0.725,-0.545 0.77,-0.53 0.8,-0.499C0.83,-0.468 0.845,-0.419 0.845,-0.351L0.845,-0L0.765,-0L0.765,-0.347C0.765,-0.39 0.755,-0.422 0.737,-0.444C0.718,-0.466 0.69,-0.477 0.653,-0.477C0.602,-0.477 0.564,-0.462 0.541,-0.432C0.517,-0.402 0.505,-0.358 0.505,-0.299L0.505,-0L0.425,-0L0.425,-0.347C0.425,-0.376 0.421,-0.4 0.412,-0.419C0.404,-0.438 0.392,-0.453 0.375,-0.462C0.359,-0.472 0.338,-0.477 0.313,-0.477C0.278,-0.477 0.249,-0.469 0.228,-0.455C0.206,-0.44 0.191,-0.418 0.181,-0.389C0.171,-0.361 0.167,-0.325 0.167,-0.283L0.167,-0L0.085,-0L0.085,-0.535L0.151,-0.535L0.163,-0.459L0.167,-0.459C0.178,-0.478 0.192,-0.494 0.208,-0.506C0.224,-0.519 0.243,-0.529 0.263,-0.535C0.283,-0.542 0.304,-0.545 0.327,-0.545C0.368,-0.545 0.402,-0.537 0.429,-0.522C0.457,-0.507 0.477,-0.484 0.489,-0.453L0.494,-0.453C0.511,-0.484 0.535,-0.507 0.566,-0.522C0.597,-0.537 0.63,-0.545 0.667,-0.545Z" style="fill:rgb(51,51,51);fill-rule:nonzero;"/>
        </g>
        <g transform="matrix(12.5,0,0,12.5,811.107,93.6997)">
            <path d="M0.167,-0.535L0.167,-0L0.085,-0L0.085,-0.535L0.167,-0.535ZM0.127,-0.735C0.14,-0.735 0.152,-0.731 0.161,-0.722C0.171,-0.714 0.176,-0.7 0.176,-0.682C0.176,-0.664 0.171,-0.651 0.161,-0.642C0.152,-0.633 0.14,-0.629 0.127,-0.629C0.113,-0.629 0.101,-0.633 0.092,-0.642C0.083,-0.651 0.078,-0.664 0.078,-0.682C0.078,-0.7 0.083,-0.714 0.092,-0.722C0.101,-0.731 0.113,-0.735 0.127,-0.735Z" style="fill:rgb(51,51,51);fill-rule:nonzero;"/>
        </g>
        <g transform="matrix(12.5,0,0,12.5,814.262,93.6997)">
            <path d="M0.3,0.01C0.252,0.01 0.209,-0 0.172,-0.02C0.136,-0.04 0.107,-0.07 0.086,-0.111C0.066,-0.152 0.056,-0.203 0.056,-0.265C0.056,-0.329 0.066,-0.382 0.088,-0.424C0.11,-0.465 0.14,-0.495 0.178,-0.515C0.216,-0.535 0.259,-0.545 0.308,-0.545C0.334,-0.545 0.36,-0.542 0.385,-0.537C0.41,-0.531 0.43,-0.525 0.446,-0.517L0.422,-0.449C0.406,-0.455 0.387,-0.461 0.365,-0.466C0.344,-0.472 0.324,-0.474 0.306,-0.474C0.269,-0.474 0.238,-0.466 0.213,-0.45C0.189,-0.434 0.17,-0.411 0.158,-0.38C0.146,-0.349 0.14,-0.311 0.14,-0.266C0.14,-0.222 0.146,-0.185 0.157,-0.155C0.169,-0.124 0.187,-0.101 0.211,-0.085C0.234,-0.069 0.264,-0.061 0.299,-0.061C0.328,-0.061 0.353,-0.064 0.376,-0.07C0.399,-0.076 0.419,-0.083 0.438,-0.091L0.438,-0.019C0.42,-0.009 0.4,-0.002 0.378,0.002C0.356,0.007 0.33,0.01 0.3,0.01Z" style="fill:rgb(51,51,51);fill-rule:nonzero;"/>
        </g>
        <g transform="matrix(12.5,0,0,12.5,820.25,93.6997)">
            <path d="M0.167,-0.76L0.167,-0.533C0.167,-0.52 0.166,-0.507 0.166,-0.493C0.165,-0.48 0.164,-0.468 0.162,-0.457L0.167,-0.457C0.179,-0.476 0.193,-0.492 0.21,-0.505C0.227,-0.517 0.246,-0.527 0.268,-0.534C0.29,-0.541 0.313,-0.544 0.337,-0.544C0.38,-0.544 0.416,-0.537 0.445,-0.523C0.474,-0.51 0.496,-0.489 0.51,-0.46C0.524,-0.431 0.532,-0.394 0.532,-0.349L0.532,-0L0.452,-0L0.452,-0.343C0.452,-0.388 0.441,-0.421 0.421,-0.443C0.401,-0.465 0.37,-0.477 0.328,-0.477C0.288,-0.477 0.256,-0.469 0.233,-0.454C0.209,-0.439 0.192,-0.417 0.182,-0.387C0.172,-0.358 0.167,-0.322 0.167,-0.28L0.167,-0L0.085,-0L0.085,-0.76L0.167,-0.76Z" style="fill:rgb(51,51,51);fill-rule:nonzero;"/>
        </g>
        <g transform="matrix(12.5,0,0,12.5,831.163,93.6997)">
            <rect x="0.078" y="-0.76" width="0.149" height="0.76" style="fill:rgb(51,51,51);fill-rule:nonzero;"/>
        </g>
        <g transform="matrix(12.5,0,0,12.5,834.318,93.6997)">
            <path d="M0.227,-0.546L0.227,-0L0.078,-0L0.078,-0.546L0.227,-0.546ZM0.153,-0.76C0.175,-0.76 0.194,-0.755 0.21,-0.744C0.226,-0.734 0.234,-0.715 0.234,-0.687C0.234,-0.659 0.226,-0.64 0.21,-0.63C0.194,-0.619 0.175,-0.614 0.153,-0.614C0.13,-0.614 0.111,-0.619 0.095,-0.63C0.08,-0.64 0.072,-0.659 0.072,-0.687C0.072,-0.715 0.08,-0.734 0.095,-0.744C0.111,-0.755 0.13,-0.76 0.153,-0.76Z" style="fill:rgb(51,51,51);fill-rule:nonzero;"/>
        </g>
        <g transform="matrix(12.5,0,0,12.5,837.474,93.6997)">
            <path d="M0.388,-0.556C0.446,-0.556 0.493,-0.54 0.529,-0.509C0.564,-0.477 0.582,-0.426 0.582,-0.356L0.582,-0L0.433,-0L0.433,-0.319C0.433,-0.358 0.426,-0.387 0.412,-0.407C0.398,-0.427 0.375,-0.437 0.345,-0.437C0.3,-0.437 0.269,-0.422 0.252,-0.391C0.235,-0.36 0.227,-0.315 0.227,-0.257L0.227,-0L0.078,-0L0.078,-0.546L0.192,-0.546L0.212,-0.476L0.22,-0.476C0.232,-0.495 0.247,-0.51 0.264,-0.522C0.281,-0.534 0.301,-0.542 0.322,-0.548C0.343,-0.553 0.365,-0.556 0.388,-0.556Z" style="fill:rgb(51,51,51);fill-rule:nonzero;"/>
        </g>
        <g transform="matrix(12.5,0,0,12.5,845.14,93.6997)">
            <path d="M0.227,-0.76L0.227,-0.42C0.227,-0.399 0.226,-0.379 0.225,-0.358C0.223,-0.338 0.221,-0.317 0.219,-0.297L0.221,-0.297C0.231,-0.311 0.242,-0.325 0.252,-0.339C0.263,-0.353 0.274,-0.367 0.286,-0.38L0.439,-0.546L0.607,-0.546L0.39,-0.309L0.62,-0L0.448,-0L0.291,-0.221L0.227,-0.17L0.227,-0L0.078,-0L0.078,-0.76L0.227,-0.76Z" style="fill:rgb(51,51,51);fill-rule:nonzero;"/>
        </g>
        <g transform="matrix(12.5,0,0,12.5,851.707,93.6997)">
            <path d="M0.459,-0.162C0.459,-0.125 0.45,-0.094 0.433,-0.068C0.415,-0.043 0.389,-0.023 0.355,-0.01C0.32,0.003 0.278,0.01 0.226,0.01C0.188,0.01 0.155,0.007 0.128,0.002C0.101,-0.002 0.074,-0.011 0.046,-0.022L0.046,-0.145C0.076,-0.132 0.107,-0.121 0.141,-0.112C0.175,-0.103 0.205,-0.099 0.231,-0.099C0.26,-0.099 0.281,-0.103 0.293,-0.112C0.306,-0.121 0.312,-0.132 0.312,-0.146C0.312,-0.155 0.309,-0.163 0.304,-0.171C0.299,-0.178 0.289,-0.186 0.272,-0.196C0.255,-0.205 0.229,-0.217 0.194,-0.232C0.16,-0.246 0.132,-0.261 0.11,-0.275C0.088,-0.29 0.071,-0.307 0.061,-0.327C0.05,-0.347 0.045,-0.373 0.045,-0.404C0.045,-0.454 0.065,-0.492 0.104,-0.518C0.143,-0.543 0.195,-0.556 0.261,-0.556C0.295,-0.556 0.327,-0.553 0.358,-0.546C0.389,-0.539 0.421,-0.528 0.453,-0.513L0.408,-0.406C0.381,-0.417 0.356,-0.427 0.332,-0.435C0.308,-0.442 0.284,-0.446 0.259,-0.446C0.237,-0.446 0.221,-0.443 0.209,-0.437C0.198,-0.431 0.193,-0.422 0.193,-0.41C0.193,-0.401 0.196,-0.394 0.201,-0.387C0.207,-0.38 0.218,-0.372 0.235,-0.364C0.251,-0.356 0.275,-0.345 0.307,-0.332C0.338,-0.319 0.365,-0.306 0.388,-0.292C0.41,-0.278 0.428,-0.261 0.44,-0.241C0.453,-0.221 0.459,-0.194 0.459,-0.162Z" style="fill:rgb(51,51,51);fill-rule:nonzero;"/>
        </g>
        <g transform="matrix(12.5,0,0,12.5,860.912,93.6997)">
            <path d="M0.227,-0.546L0.227,-0L0.078,-0L0.078,-0.546L0.227,-0.546ZM0.153,-0.76C0.175,-0.76 0.194,-0.755 0.21,-0.744C0.226,-0.734 0.234,-0.715 0.234,-0.687C0.234,-0.659 0.226,-0.64 0.21,-0.63C0.194,-0.619 0.175,-0.614 0.153,-0.614C0.13,-0.614 0.111,-0.619 0.095,-0.63C0.08,-0.64 0.072,-0.659 0.072,-0.687C0.072,-0.715 0.08,-0.734 0.095,-0.744C0.111,-0.755 0.13,-0.76 0.153,-0.76Z" style="fill:rgb(51,51,51);fill-rule:nonzero;"/>
        </g>
        <g transform="matrix(12.5,0,0,12.5,864.067,93.6997)">
            <path d="M0.719,-0.556C0.781,-0.556 0.828,-0.54 0.86,-0.509C0.891,-0.477 0.907,-0.426 0.907,-0.356L0.907,-0L0.758,-0L0.758,-0.319C0.758,-0.358 0.751,-0.387 0.738,-0.407C0.724,-0.427 0.704,-0.437 0.676,-0.437C0.636,-0.437 0.608,-0.423 0.592,-0.395C0.575,-0.367 0.567,-0.326 0.567,-0.274L0.567,-0L0.418,-0L0.418,-0.319C0.418,-0.345 0.415,-0.367 0.409,-0.384C0.403,-0.402 0.394,-0.415 0.382,-0.424C0.37,-0.433 0.355,-0.437 0.336,-0.437C0.308,-0.437 0.287,-0.43 0.271,-0.416C0.255,-0.402 0.244,-0.382 0.237,-0.355C0.23,-0.328 0.227,-0.296 0.227,-0.257L0.227,-0L0.078,-0L0.078,-0.546L0.192,-0.546L0.212,-0.476L0.22,-0.476C0.231,-0.495 0.245,-0.51 0.262,-0.522C0.279,-0.534 0.297,-0.542 0.317,-0.548C0.338,-0.553 0.358,-0.556 0.379,-0.556C0.419,-0.556 0.453,-0.55 0.481,-0.537C0.509,-0.524 0.53,-0.503 0.545,-0.476L0.558,-0.476C0.574,-0.504 0.597,-0.524 0.627,-0.537C0.657,-0.55 0.688,-0.556 0.719,-0.556Z" style="fill:rgb(51,51,51);fill-rule:nonzero;"/>
        </g>
        <g transform="matrix(12.5,0,0,12.5,878.886,93.6997)">
            <path d="M0.392,-0L0.22,-0.56L0.216,-0.56C0.216,-0.547 0.218,-0.527 0.219,-0.5C0.22,-0.473 0.222,-0.444 0.223,-0.414C0.224,-0.384 0.225,-0.356 0.225,-0.332L0.225,-0L0.09,-0L0.09,-0.714L0.296,-0.714L0.465,-0.168L0.468,-0.168L0.647,-0.714L0.853,-0.714L0.853,-0L0.712,-0L0.712,-0.338C0.712,-0.36 0.712,-0.386 0.713,-0.416C0.714,-0.445 0.715,-0.473 0.716,-0.499C0.718,-0.526 0.719,-0.546 0.719,-0.559L0.715,-0.559L0.531,-0L0.392,-0Z" style="fill:rgb(51,51,51);fill-rule:nonzero;"/>
        </g>
        <g transform="matrix(12.5,0,0,12.5,890.129,93.6997)">
            <path d="M0.303,-0.556C0.354,-0.556 0.397,-0.546 0.434,-0.527C0.47,-0.508 0.498,-0.48 0.518,-0.443C0.538,-0.406 0.548,-0.361 0.548,-0.308L0.548,-0.236L0.196,-0.236C0.197,-0.194 0.21,-0.161 0.234,-0.137C0.257,-0.113 0.29,-0.101 0.332,-0.101C0.367,-0.101 0.399,-0.105 0.428,-0.112C0.457,-0.119 0.486,-0.13 0.517,-0.144L0.517,-0.029C0.49,-0.015 0.462,-0.006 0.432,0C0.403,0.007 0.367,0.01 0.325,0.01C0.271,0.01 0.222,-0 0.18,-0.021C0.138,-0.041 0.105,-0.071 0.081,-0.113C0.057,-0.154 0.045,-0.206 0.045,-0.269C0.045,-0.333 0.056,-0.386 0.077,-0.428C0.099,-0.471 0.129,-0.503 0.168,-0.524C0.207,-0.545 0.252,-0.556 0.303,-0.556ZM0.304,-0.45C0.275,-0.45 0.251,-0.441 0.232,-0.422C0.213,-0.404 0.202,-0.375 0.199,-0.335L0.408,-0.335C0.408,-0.357 0.404,-0.377 0.396,-0.394C0.389,-0.411 0.377,-0.425 0.362,-0.435C0.347,-0.445 0.328,-0.45 0.304,-0.45Z" style="fill:rgb(51,51,51);fill-rule:nonzero;"/>
        </g>
        <g transform="matrix(12.5,0,0,12.5,897.148,93.6997)">
            <path d="M0.388,-0.556C0.446,-0.556 0.493,-0.54 0.529,-0.509C0.564,-0.477 0.582,-0.426 0.582,-0.356L0.582,-0L0.433,-0L0.433,-0.319C0.433,-0.358 0.426,-0.387 0.412,-0.407C0.398,-0.427 0.375,-0.437 0.345,-0.437C0.3,-0.437 0.269,-0.422 0.252,-0.391C0.235,-0.36 0.227,-0.315 0.227,-0.257L0.227,-0L0.078,-0L0.078,-0.546L0.192,-0.546L0.212,-0.476L0.22,-0.476C0.232,-0.495 0.247,-0.51 0.264,-0.522C0.281,-0.534 0.301,-0.542 0.322,-0.548C0.343,-0.553 0.365,-0.556 0.388,-0.556Z" style="fill:rgb(51,51,51);fill-rule:nonzero;"/>
        </g>
        <g transform="matrix(12.5,0,0,12.5,904.814,93.6997)">
            <path d="M0.579,-0.546L0.579,-0L0.465,-0L0.445,-0.07L0.437,-0.07C0.425,-0.051 0.411,-0.036 0.393,-0.024C0.375,-0.013 0.356,-0.004 0.335,0.001C0.314,0.007 0.292,0.01 0.269,0.01C0.23,0.01 0.196,0.003 0.167,-0.011C0.138,-0.025 0.115,-0.046 0.099,-0.076C0.083,-0.105 0.075,-0.143 0.075,-0.19L0.075,-0.546L0.224,-0.546L0.224,-0.227C0.224,-0.188 0.231,-0.159 0.245,-0.139C0.259,-0.119 0.281,-0.109 0.312,-0.109C0.342,-0.109 0.366,-0.116 0.383,-0.13C0.401,-0.143 0.413,-0.164 0.42,-0.191C0.427,-0.218 0.43,-0.25 0.43,-0.289L0.43,-0.546L0.579,-0.546ZM0.161,-0.686C0.161,-0.709 0.168,-0.726 0.181,-0.736C0.194,-0.747 0.21,-0.752 0.229,-0.752C0.248,-0.752 0.264,-0.747 0.277,-0.736C0.291,-0.726 0.298,-0.709 0.298,-0.686C0.298,-0.664 0.291,-0.648 0.277,-0.637C0.264,-0.626 0.248,-0.621 0.229,-0.621C0.21,-0.621 0.194,-0.626 0.181,-0.637C0.168,-0.648 0.161,-0.664 0.161,-0.686ZM0.358,-0.686C0.358,-0.709 0.365,-0.726 0.378,-0.736C0.391,-0.747 0.407,-0.752 0.427,-0.752C0.445,-0.752 0.462,-0.747 0.475,-0.736C0.489,-0.726 0.496,-0.709 0.496,-0.686C0.496,-0.664 0.489,-0.648 0.475,-0.637C0.462,-0.626 0.445,-0.621 0.427,-0.621C0.407,-0.621 0.391,-0.626 0.378,-0.637C0.365,-0.648 0.358,-0.664 0.358,-0.686Z" style="fill:rgb(51,51,51);fill-rule:nonzero;"/>
        </g>
        <g transform="matrix(12.5,0,0,12.5,912.48,93.6997)">
            <path d="M0.073,-0.051C0.073,-0.074 0.079,-0.09 0.09,-0.099C0.101,-0.109 0.114,-0.114 0.13,-0.114C0.147,-0.114 0.161,-0.109 0.172,-0.099C0.184,-0.09 0.189,-0.074 0.189,-0.051C0.189,-0.028 0.184,-0.012 0.172,-0.002C0.161,0.009 0.147,0.014 0.13,0.014C0.114,0.014 0.101,0.009 0.09,-0.002C0.079,-0.012 0.073,-0.028 0.073,-0.051Z" style="fill:rgb(51,51,51);fill-rule:nonzero;"/>
        </g>
    </g>
    <path id="Haare" d="M1335.83,726.023C1341.59,668.51 1390.55,624.192 1448.36,624.192C1461.04,624.192 1473.63,626.326 1485.61,630.507C1522.36,637.858 1546.86,659.582 1568.98,689.844C1590.85,720.445 1598.35,759.084 1589.54,795.646C1580.25,831.543 1552.82,862.694 1517.71,874.645C1498.19,881.294 1477.24,882.104 1456.63,882.805C1443.24,883.254 1429.62,883.666 1416.72,880.078C1400.13,874.942 1385.54,864.77 1374.98,850.982C1364.52,837.244 1356.2,822.001 1350.3,805.774C1340.3,780.396 1333.11,753.166 1335.83,726.023Z" style="fill:rgb(51,51,51);fill-rule:nonzero;"/>
    <path id="Arm" d="M947.154,607.321C946.213,610.837 945.728,614.462 945.728,618.108C945.728,639.507 962.295,657.571 983.622,659.423L1216.08,957.138L1276.76,890.416L1029.18,618.744C1029.18,618.462 1029.18,618.187 1029.18,617.905C1029.18,595.03 1010.36,576.206 987.485,576.206C968.596,576.206 951.95,589.047 947.154,607.321Z" style="fill:rgb(255,178,180);fill-rule:nonzero;"/>
    <path id="kreis1" serif:id="kreis" d="M1270.07,1064.36C1269.99,1063.17 1269.91,1061.99 1269.85,1060.81C1277.06,1065.65 1284.45,1070.22 1292.03,1074.52C1294.08,1075.67 1296.15,1076.82 1298.23,1077.94C1312.39,1085.59 1327.14,1092.27 1342.4,1097.89C1379.57,1111.62 1419.75,1119.13 1461.64,1119.13C1505.05,1119.13 1546.62,1111.07 1584.92,1096.38C1594.54,1092.69 1603.95,1088.58 1613.14,1084.07C1612.35,1085.76 1611.33,1087.31 1610.1,1088.67C1603.2,1091.93 1596.2,1094.95 1589.11,1097.75L1586.97,1098.38C1586.96,1098.45 1586.96,1098.52 1586.95,1098.59C1547.5,1113.8 1505.18,1121.74 1461.64,1121.74C1392.49,1121.74 1326.41,1101.69 1270.07,1064.36Z" style="fill:rgb(47,46,67);stroke:rgb(51,51,51);stroke-width:1px;"/>
    <path id="Gesicht" d="M1552.66,753.209C1536.78,700.934 1481.43,671.396 1429.16,687.29C1376.88,703.177 1347.34,758.519 1363.24,810.795C1379.12,863.07 1434.47,892.608 1486.74,876.714C1539.02,860.828 1568.56,805.485 1552.66,753.209Z" style="fill:rgb(255,178,180);"/>
    <path id="Pony" d="M1569.84,799.256L1531.51,791.276L1524.45,740.405L1511.22,787.059L1492.9,783.246L1488.78,753.571L1481.06,780.779L1344.92,752.45C1355,704.03 1398.06,669.009 1447.52,669.009C1454.69,669.009 1461.84,669.747 1468.87,671.208L1488.59,675.31C1544.88,687.022 1581.56,742.973 1569.84,799.256Z" style="fill:rgb(51,51,51);fill-rule:nonzero;"/>
    <path id="Zopf" d="M1486.61,637.018C1477.36,600.073 1495.26,560.45 1522.97,534.334C1550.69,508.211 1586.86,493.207 1622.65,480.207C1651.2,469.847 1684.63,460.833 1710.47,476.792C1731.23,489.618 1740.23,514.534 1752.1,535.853C1798.64,619.468 1900.55,656.652 1990,622.665C1974.68,667.142 1921.9,688.903 1874.96,685.879C1828.01,682.855 1784.65,661.239 1740.91,643.898C1697.18,626.565 1648.54,613.167 1603.59,627.057C1584.62,632.916 1567.36,643.37 1548.58,649.809C1529.79,656.24 1507.82,658.157 1491.08,647.479" style="fill:rgb(51,51,51);fill-rule:nonzero;"/>
    <path id="arm" d="M1295.3,898.902C1362.87,986.221 1296.48,1029.55 1268.76,1023.66C1255.65,1021.53 1243.72,1014.4 1235.64,1003.59L1169.4,937.844C1165.57,934.039 1163.58,928.744 1163.95,923.347C1164.33,917.957 1167.04,912.987 1171.38,909.753L1246.6,853.535C1249.81,851.133 1253.72,849.831 1257.73,849.831C1264.55,849.831 1270.86,853.593 1274.1,859.598L1295.3,898.902Z" style="fill:rgb(51,51,51);"/>
    <path id="shirt" d="M1613.14,1084.07C1603.95,1088.58 1594.54,1092.69 1584.92,1096.38C1546.62,1111.07 1505.05,1119.13 1461.64,1119.13C1419.75,1119.13 1379.57,1111.62 1342.4,1097.89C1327.14,1092.27 1312.39,1085.59 1298.23,1077.94C1296.15,1076.82 1294.08,1075.67 1292.03,1074.52C1284.45,1070.22 1277.06,1065.65 1269.85,1060.81C1269.13,1048.44 1271.32,1035.78 1268.76,1023.66C1249.54,932.491 1274.19,906.447 1295.3,898.902L1374.33,883.095L1489.88,915.194L1534.84,947.893C1553.12,951.742 1568.32,965.357 1573.78,983.768L1613.14,1068.39C1615.42,1073.29 1615.46,1078.95 1613.23,1083.87C1613.2,1083.93 1613.17,1084 1613.14,1084.07Z" style="fill:rgb(51,51,51);"/>
</svg>
